/* XPM */
static char * char_right_xpm[] = {
"120 120 26 1",
" 	c #8D768A",
".	c #8C7589",
"+	c #8D7689",
"@	c #8C7587",
"#	c #8C7588",
"$	c #696A6A",
"%	c #FCA89D",
"&	c #000000",
"*	c #A84111",
"=	c #472138",
"-	c #FAE898",
";	c #D41900",
">	c #BAA368",
",	c #FF4D00",
"'	c #8B7487",
")	c #8A7386",
"!	c #8A7385",
"~	c #897284",
"{	c #FAFA82",
"]	c #A2524A",
"^	c #986670",
"/	c #A64830",
"(	c #9E5A5A",
"_	c #A1534C",
":	c #A34E40",
"<	c #8B7486",
"                                                                                .                                 +     ",
"                                                                      +                                          .      ",
"                                                                                                                 @      ",
"                                                                                     +                           .      ",
"                                                                                                                        ",
"                                                                                                                        ",
"                                                                                           #                            ",
"                                                                                                                        ",
"                                                                                                                        ",
"                                                                                                                        ",
"  #                                                                                                                     ",
"                                                                                                                        ",
"                                                                                                                        ",
"                                                                                                                        ",
"                                                                                                                        ",
"                                                    $$$$%%%%%%%%%%%%%%%$$$$                                             ",
"                                                    $$$$%%%%%%%%%%%%%%%$$$$                                             ",
"                                                    $$$$%%%%%%%%%%%%%%%$$$$                                             ",
"                                                    $$$$%%%%%%%%%%%%%%%$$$$                                             ",
"                                                $$$$$$$$$$$$$$$$$$$$$$$$$$$$$$                                          ",
"                                                $$$$$$$$$$$$$$$$$$$$$$$$$$$$$$                                          ",
"                                                $$$$$$$$$$$$$$$$$$$$$$$$$$$$$$                                          ",
"                                                $$$$$$$$$$$$$$$$$$$$$$$$$$$$$$                                          ",
"                                                $$$$$$$$%%%%%%%%%%%%%%%%%%%%%%                                          ",
"                                                $$$$$$$$%%%%%%%%%%%%%%%%%%%%%%                                          ",
"                                                $$$$$$$$%%%%%%%%%%%%%%%%%%%%%%                                          ",
"                                                %%%%$$$$%%%%&&&&&&&%%%%%%%%&&&                                          ",
"                                                %%%%$$$$%%%%&&&&&&&%%%%%%%%&&&                                          ",
"                                                %%%%$$$$%%%%&&&&&&&%%%%%%%%&&&                                          ",
"                                                %%%%$$$$%%%%&&&&&&&%%%%%%%%&&&                                          ",
"                                                %%%%$$$$%%%%%%%%%%%%%%%%%%%%%%                                          ",
"                                                %%%%$$$$%%%%%%%%%%%%%%%%%%%%%%                                          ",
"                                                %%%%$$$$%%%%%%%%%%%%%%%%%%%%%%                                          ",
"                                                %%%%$$$$%%%%%%%%%%%%%%%%%%%%%%                                          ",
"                                         *******%%%%%%%%%%%%%%%%%%%%%%%%%%%%%%                                          ",
"                                         *******%%%%%%%%%%%%%%%%%%%%%%%%%%%%%%                                          ",
"                                         *******%%%%%%%%%%%%%%%%%%%%%%%%%%%%%%                                          ",
"                                         *******%%%%%%%%%%%%%%%%%%%%%%%%%%%%%%                                          ",
"                                     ***********%%%%%%%%%%%%%%%%%%%%%%%%%%%%%%                                          ",
"                                     ***********%%%%%%%%%%%%%%%%%%%%%%%%%%%%%%                                          ",
"                                     ***********%%%%%%%%%%%%%%%%%%%%%%%%%%%%%%                                          ",
"                                 ****====***********%%%%%%%%%%%%%%%%%%%%%%%***                                          ",
"                                 ****====***********%%%%%%%%%%%%%%%%%%%%%%%***                                          ",
"                                 ****====***********%%%%%%%%%%%%%%%%%%%%%%%***                                          ",
"                                 ****====***********%%%%%%%%%%%%%%%%%%%%%%%***                                          ",
"                                 ********====***************%%%%%%%%%%%***********                                      ",
"                                 ********====***************%%%%%%%%%%%***********                                      ",
"                                 ********====***************%%%%%%%%%%%***********                                      ",
"                                 ********====***************%%%%%%%%%%%***********                                      ",
"                                 ====********===**************************************                                ##",
"                                 ====********===**************************************                                ##",
"                                 ====********===**************************************                                ##",
"                                 ====********===**************************************                                ##",
"                              *******====*********************************************               ----             ##",
"                              *******====*********************************************               ----             ##",
"                              *******====*********************************************               ----             ##",
"                              ***********====*************************************====           --------;;;          ##",
"                              ***********====*************************************====           --------;;;          ##",
"                              ***********====*************************************====           --------;;;          ##",
"                              ***********====*************************************====           --------;;;          ##",
"                              ***************=======**************************========----------->>>>;;;;;;;          .#",
"                              ***************=======**************************========----------->>>>;;;;;;;          .+",
"                              ***************=======**************************========----------->>>>;;;;;;;          + ",
"                              ***************=======**************************========----------->>>>;;;;;;;          + ",
"                          **************************==========================********,,,,,,,,,,,,,,,;;;;              .",
"                          **************************==========================********,,,,,,,,,,,,,,,;;;;              #",
"                          **************************==========================********,,,,,,,,,,,,,,,;;;;              '",
"                          ********************************************************,,,,,,,,,,,,,,,,,,,;;;;             +'",
"                          ********************************************************,,,,,,,,,,,,,,,,,,,;;;;              )",
"                          ********************************************************,,,,,,,,,,,,,,,,,,,;;;;              !",
"                          ********************************************************,,,,,,,,,,,,,,,,,,,;;;;              ~",
"                          **********************>>>>**************************>>>>,,,,,,,,%%%%%%%%%%%%%%%               ",
"                          **********************>>>>**************************>>>>,,,,,,,,%%%%%%%%%%%%%%%               ",
"                          **********************>>>>**************************>>>>,,,,,,,,%%%%%%%%%%%%%%%               ",
"                          **********************>>>>**************************>>>>,,,,,,,,%%%%%%%%%%%%%%%               ",
"                          *******************===****>>>>>>>>>>>>>>>{{{{{{{{>>>****    ,,,,,,,%%%%%%%%                   ",
"                          *******************===****>>>>>>>>>>>>>>>{{{{{{{{>>>****    ,,,,,,,%%%%%%%%                   ",
"                          *******************===****>>>>>>>>>>>>>>>{{{{{{{{>>>****    ,,,,,,,%%%%%%%%                   ",
"                          *******************===****>>>>>>>>>>>>>>>{{{{{{{{>>>****    ,,,,,,,%%%%%%%%                   ",
"                          *******************===*******************{{{{{{{{*******                                      ",
"                          *******************===*******************{{{{{{{{*******                                      ",
"                          *******************===*******************{{{{{{{{*******                                      ",
"                          ***************====**********************>>>>***********                                      ",
"                          ***************====**********************>>>>***********                                      ",
"                          ***************====**********************>>>>***********                                      ",
"                          ***************====**********************>>>>***********                                      ",
"                              %%%%%%%%%%%**************************>>>>***********                                      ",
".                             %%%%%%%%%%%**************************>>>>***********                                      ",
"+                             %%%%%%%%%%%**************************>>>>***********                                      ",
"                              %%%%%%%%%%%**************************>>>>***********                                      ",
".                                **********************************>>>>***********                                      ",
"#                                **********************************>>>>***********                                      ",
"'                                **********************************>>>>***********                                      ",
"#                                **********************************>>>>***********                                      ",
"#                                *************************************************                                      ",
".                                *************************************************                                      ",
"                                 *************************************************                                      ",
"                                 *************************************************                                      ",
"                                 *************************************************                                      ",
"                                 *************************************************                                      ",
"                                 *************************************************                                      ",
"                                 *************************************************                                      ",
"                                 *************************************************                                      ",
"                                 *************************************************                                      ",
"                                 *************************************************                                      ",
"                                 *************************************************                                    . ",
"                                 *************************************************                                      ",
"                                 ]************************************************                                      ",
"                                 ^/***********************************************                                      ",
"                                     **************************************                                             ",
"                                     **************************************                                             ",
"                                     (_:/**********************************                                             ",
"                                    +<                                                    +   +                  +      ",
"                                                                                          .                             ",
"                                ++                                                                                      ",
"                                                                                                                        ",
"                                                                                                                        ",
"                                                                                                                        ",
"                                                                                              +++                       ",
"                                                                                      #!#.+++                           "};
