/* XPM */
static char * char_left_xpm[] = {
"120 120 18 1",
" 	c #8D768A",
".	c #696A6A",
"+	c #FCA89D",
"@	c #000000",
"#	c #A84111",
"$	c #472138",
"%	c #FAE898",
"&	c #D41900",
"*	c #BAA368",
"=	c #FF4D00",
"-	c #FAFA82",
";	c #A84114",
">	c #A74524",
",	c #A44C3A",
"'	c #A35044",
")	c #897284",
"!	c #8B7488",
"~	c #8D7689",
"                                                                                                                        ",
"                                                                                                                        ",
"                                                                                                                        ",
"                                                                                                                        ",
"                                                                                                                        ",
"                                                                                                                        ",
"                                                                                                                        ",
"                                                                                                                        ",
"                                                                                                                        ",
"                                                                                                                        ",
"                                                                                                                        ",
"                                                                                                                        ",
"                                                                                                                        ",
"                                                                                                                        ",
"                                                                                                                        ",
"                                             ....+++++++++++++++....                                                    ",
"                                             ....+++++++++++++++....                                                    ",
"                                             ....+++++++++++++++....                                                    ",
"                                             ....+++++++++++++++....                                                    ",
"                                          ..............................                                                ",
"                                          ..............................                                                ",
"                                          ..............................                                                ",
"                                          ..............................                                                ",
"                                          ++++++++++++++++++++++........                                                ",
"                                          ++++++++++++++++++++++........                                                ",
"                                          ++++++++++++++++++++++........                                                ",
"                                          @@@++++++++@@@@@@@++++....++++                                                ",
"                                          @@@++++++++@@@@@@@++++....++++                                                ",
"                                          @@@++++++++@@@@@@@++++....++++                                                ",
"                                          @@@++++++++@@@@@@@++++....++++                                                ",
"                                          ++++++++++++++++++++++....++++                                                ",
"                                          ++++++++++++++++++++++....++++                                                ",
"                                          ++++++++++++++++++++++....++++                                                ",
"                                          ++++++++++++++++++++++....++++                                                ",
"                                          ++++++++++++++++++++++++++++++#######                                         ",
"                                          ++++++++++++++++++++++++++++++#######                                         ",
"                                          ++++++++++++++++++++++++++++++#######                                         ",
"                                          ++++++++++++++++++++++++++++++#######                                         ",
"                                          ++++++++++++++++++++++++++++++###########                                     ",
"                                          ++++++++++++++++++++++++++++++###########                                     ",
"                                          ++++++++++++++++++++++++++++++###########                                     ",
"                                          ###+++++++++++++++++++++++###########$$$$####                                 ",
"                                          ###+++++++++++++++++++++++###########$$$$####                                 ",
"                                          ###+++++++++++++++++++++++###########$$$$####                                 ",
"                                          ###+++++++++++++++++++++++###########$$$$####                                 ",
"                                      ###########+++++++++++###############$$$$########                                 ",
"                                      ###########+++++++++++###############$$$$########                                 ",
"                                      ###########+++++++++++###############$$$$########                                 ",
"                                      ###########+++++++++++###############$$$$########                                 ",
"                                  ######################################$$$########$$$$                                 ",
"                                  ######################################$$$########$$$$                                 ",
"                                  ######################################$$$########$$$$                                 ",
"                                  ######################################$$$########$$$$                                 ",
"               %%%%               #############################################$$$$#######                              ",
"               %%%%               #############################################$$$$#######                              ",
"               %%%%               #############################################$$$$#######                              ",
"            &&&%%%%%%%%           $$$$#####################################$$$$###########                              ",
"            &&&%%%%%%%%           $$$$#####################################$$$$###########                              ",
"            &&&%%%%%%%%           $$$$#####################################$$$$###########                              ",
"            &&&%%%%%%%%           $$$$#####################################$$$$###########                              ",
"            &&&&&&&****%%%%%%%%%%%$$$$$$$$##########################$$$$$$$###############                              ",
"            &&&&&&&****%%%%%%%%%%%$$$$$$$$##########################$$$$$$$###############                              ",
"            &&&&&&&****%%%%%%%%%%%$$$$$$$$##########################$$$$$$$###############                              ",
"            &&&&&&&****%%%%%%%%%%%$$$$$$$$##########################$$$$$$$###############                              ",
"               &&&&===============########$$$$$$$$$$$$$$$$$$$$$$$$$$##########################                          ",
"               &&&&===============########$$$$$$$$$$$$$$$$$$$$$$$$$$##########################                          ",
"               &&&&===============########$$$$$$$$$$$$$$$$$$$$$$$$$$##########################                          ",
"               &&&&===================########################################################                          ",
"               &&&&===================########################################################                          ",
"               &&&&===================########################################################                          ",
"               &&&&===================########################################################                          ",
"               +++++++++++++++========****##########################****######################                          ",
"               +++++++++++++++========****##########################****######################                          ",
"               +++++++++++++++========****##########################****######################                          ",
"               +++++++++++++++========****##########################****######################                          ",
"                   ++++++++=======    ####***--------***************####$$$###################                          ",
"                   ++++++++=======    ####***--------***************####$$$###################                          ",
"                   ++++++++=======    ####***--------***************####$$$###################                          ",
"                   ++++++++=======    ####***--------***************####$$$###################                          ",
"                                      #######--------###################$$$###################                          ",
"                                      #######--------###################$$$###################                          ",
"                                      #######--------###################$$$###################                          ",
"                                      ###########****######################$$$$###############                          ",
"                                      ###########****######################$$$$###############                          ",
"                                      ###########****######################$$$$###############                          ",
"                                      ###########****######################$$$$###############                          ",
"                                      ###########****##########################+++++++++++                              ",
"                                      ###########****##########################+++++++++++                              ",
"                                      ###########****##########################+++++++++++                              ",
"                                      ###########****##########################+++++++++++                              ",
"                                      ###########****##################################                                 ",
"                                      ###########****##################################                                 ",
"                                      ###########****##################################                                 ",
"                                      ###########****##################################                                 ",
"                                      #################################################                                 ",
"                                      #################################################                                 ",
"                                      #################################################                                 ",
"                                      #################################################                                 ",
"                                      #################################################                                 ",
"                                      #################################################                                 ",
"                                      #################################################                                 ",
"                                      #################################################                                 ",
"                                      #################################################                                 ",
"                                      #################################################                                 ",
"                                      #################################################                                 ",
"                                      #################################################                                 ",
"                                      #################################################                                 ",
"                                      #################################################                                 ",
"                                      #################################################                                 ",
"                                             ######################################                                     ",
"                                             ######################################                                     ",
"                                             ##################################;>,'                                     ",
"                                                                                  )!~                                   ",
"                                                                                                                        ",
"                                                                                                                        ",
"                                                                                                                        ",
"                                                                                                                        ",
"                                                                                                                        ",
"                                                                                                                        ",
"                                                                                                                        "};
