/* XPM */
static char * char_up_xpm[] = {
"120 120 18 1",
" 	c #8D768A",
".	c #D41900",
"+	c #FAE898",
"@	c #FCA89D",
"#	c #BAA368",
"$	c #FF4D00",
"%	c #A84111",
"&	c #472138",
"*	c #696A6A",
"=	c #000000",
"-	c #FAFA82",
";	c #A84114",
">	c #A74524",
",	c #A44C39",
"'	c #A2534B",
")	c #8A7385",
"!	c #8C7589",
"~	c #8D7689",
"                                                                                                                        ",
"                                                                                                                        ",
"                                                                                                                        ",
"                                                                                                                        ",
"                                                                                                                        ",
"                                                                                                                        ",
"                                                                                                                        ",
"                                                                                                                        ",
"                                                                                                                        ",
"                                                                                                                        ",
"                                                                                                                        ",
"                                                                                                                        ",
"                                                        ........                                                        ",
"                                                        ........                                                        ",
"                                                        ........                                                        ",
"                                                     +++++++...........@@@@                                             ",
"                                                     +++++++...........@@@@                                             ",
"                                                     +++++++...........@@@@                                             ",
"                                                     +++++++...........@@@@                                             ",
"                                                        ++++####$$$$$$$@@@@@@@@                                         ",
"                                                        ++++####$$$$$$$@@@@@@@@                                         ",
"                                                        ++++####$$$$$$$@@@@@@@@                                         ",
"                                                        ++++####$$$$$$$@@@@@@@@                                         ",
"                                                            ++++$$$$$$$@@@@@@@@                                         ",
"                                                            ++++$$$$$$$@@@@@@@@                                         ",
"                                                            ++++$$$$$$$@@@@@@@@                                         ",
"                                                            ++++$$$$$$$@@@@@@@@                                         ",
"                                                            ++++$$$$$$$@@@@$$$$                                         ",
"                                                            ++++$$$$$$$@@@@$$$$                                         ",
"                                                            ++++$$$$$$$@@@@$$$$                                         ",
"                                                            ++++$$$$$$$$$$$$$$$                                         ",
"                                                            ++++$$$$$$$$$$$$$$$                                         ",
"                                                            ++++$$$$$$$$$$$$$$$                                         ",
"                                                            ++++$$$$$$$$$$$$$$$                                         ",
"                                                 %%%%%%%&&&&&&&&%%%$$$$$$$$                                             ",
"                                                 %%%%%%%&&&&&&&&%%%$$$$$$$$                                             ",
"                                                 %%%%%%%&&&&&&&&%%%$$$$$$$$                                             ",
"                                                 %%%%%%%&&&&&&&&%%%$$$$$$$$                                             ",
"                                             %%%%%%%%%%%%%%%&&&&%%%%%%%####%%%%%%%%%%%%%%%%%%%%%%%%%%%%%%%%%%           ",
"                                             %%%%%%%%%%%%%%%&&&&%%%%%%%####%%%%%%%%%%%%%%%%%%%%%%%%%%%%%%%%%%           ",
"                                             %%%%%%%%%%%%%%%&&&&%%%%%%%####%%%%%%%%%%%%%%%%%%%%%%%%%%%%%%%%%%           ",
"                                             %%%%%%%%%%%%%%%&&&&%%%%%%%####%%%%%%%%%%%%%%%%%%%%%%%%%%%%%%%%%%           ",
"                   ****@@@====@@@@@@@@@@@%%%%%%%%%%%%%%%%%%%%%%%&&&%%%%%%%%####%%%%%%%%%%%%%%%%%%%%%%%%%%%%%%           ",
"                   ****@@@====@@@@@@@@@@@%%%%%%%%%%%%%%%%%%%%%%%&&&%%%%%%%%####%%%%%%%%%%%%%%%%%%%%%%%%%%%%%%           ",
"                   ****@@@====@@@@@@@@@@@%%%%%%%%%%%%%%%%%%%%%%%&&&%%%%%%%%####%%%%%%%%%%%%%%%%%%%%%%%%%%%%%%           ",
"               ********@@@@@@@@@@@@@@@@@@@@@@%%%%%%%%%%%%%%%%%%%&&&%%%%%%%%-------%%%%%%%%%%%%%%%%%%%%%%%%%%%%%%        ",
"               ********@@@@@@@@@@@@@@@@@@@@@@%%%%%%%%%%%%%%%%%%%&&&%%%%%%%%-------%%%%%%%%%%%%%%%%%%%%%%%%%%%%%%        ",
"               ********@@@@@@@@@@@@@@@@@@@@@@%%%%%%%%%%%%%%%%%%%&&&%%%%%%%%-------%%%%%%%%%%%%%%%%%%%%%%%%%%%%%%        ",
"               ********@@@@@@@@@@@@@@@@@@@@@@%%%%%%%%%%%%%%%%%%%&&&%%%%%%%%-------%%%%%%%%%%%%%%%%%%%%%%%%%%%%%%        ",
"               @@@@****@@@@@@@@@@@@@@@@@@@@@@@@@@%%%%%%%%%%%%%%%&&&%%%%%%%%-------############%%%%%%%%%%%%%%%%%%        ",
"               @@@@****@@@@@@@@@@@@@@@@@@@@@@@@@@%%%%%%%%%%%%%%%&&&%%%%%%%%-------############%%%%%%%%%%%%%%%%%%        ",
"               @@@@****@@@@@@@@@@@@@@@@@@@@@@@@@@%%%%%%%%%%%%%%%&&&%%%%%%%%-------############%%%%%%%%%%%%%%%%%%        ",
"               @@@@****@@@@@@@@@@@@@@@@@@@@@@@@@@%%%%%%%%%%%%%%%&&&%%%%%%%%-------############%%%%%%%%%%%%%%%%%%        ",
"               @@@@****@@@====@@@@@@@@@@@@@@@@@@@%%%%%%%%%%%%%%%&&&%%%%%%%%####%%%%%%%%%%%%%%%%%%%%%%%%%%%%%%%%%        ",
"               @@@@****@@@====@@@@@@@@@@@@@@@@@@@%%%%%%%%%%%%%%%&&&%%%%%%%%####%%%%%%%%%%%%%%%%%%%%%%%%%%%%%%%%%        ",
"               @@@@****@@@====@@@@@@@@@@@@@@@@@@@%%%%%%%%%%%%%%%&&&%%%%%%%%####%%%%%%%%%%%%%%%%%%%%%%%%%%%%%%%%%        ",
"               @@@@****@@@====@@@@@@@@@@@@@@@@@@@%%%%%%%%%%%%%%%&&&%%%%%%%%####%%%%%%%%%%%%%%%%%%%%%%%%%%%%%%%%%        ",
"               @@@@****@@@====@@@@@@@@@@@@@@@@@@@%%%%%%%%%%%%%%%&&&%%%%%%%%####%%%%%%%%%%%%%%%%%%%%%%%%%%%%%%%%%        ",
"               @@@@****@@@====@@@@@@@@@@@@@@@@@@@%%%%%%%%%%%%%%%&&&%%%%%%%%####%%%%%%%%%%%%%%%%%%%%%%%%%%%%%%%%%        ",
"               @@@@****@@@====@@@@@@@@@@@@@@@@@@@%%%%%%%%%%%%%%%&&&%%%%%%%%####%%%%%%%%%%%%%%%%%%%%%%%%%%%%%%%%%        ",
"               @@@@****@@@@@@@@@@@@@@@@@@@@@@%%%%%%%%%%%%%%%%%%%&&&%%%%%%%%####%%%%%%%%%%%%%%%%%%%%%%%%%%%%%%%%%        ",
"               @@@@****@@@@@@@@@@@@@@@@@@@@@@%%%%%%%%%%%%%%%%%%%&&&%%%%%%%%####%%%%%%%%%%%%%%%%%%%%%%%%%%%%%%%%%        ",
"               @@@@****@@@@@@@@@@@@@@@@@@@@@@%%%%%%%%%%%%%%%%%%%&&&%%%%%%%%####%%%%%%%%%%%%%%%%%%%%%%%%%%%%%%%%%        ",
"               @@@@****@@@@@@@@@@@@@@@@@@@@@@%%%%%%%%%%%%%%%%%%%&&&%%%%%%%%####%%%%%%%%%%%%%%%%%%%%%%%%%%%%%%%%%        ",
"               *******************@@@@@@@@@@@%%%%%%%%%%%%%%%%%%%&&&%%%%%%%%####%%%%%%%%%%%%%%%%%%%%%%%%%%%%%%%%%        ",
"               *******************@@@@@@@@@@@%%%%%%%%%%%%%%%%%%%&&&%%%%%%%%####%%%%%%%%%%%%%%%%%%%%%%%%%%%%%%%%%        ",
"               *******************@@@@@@@@@@@%%%%%%%%%%%%%%%%%%%&&&%%%%%%%%####%%%%%%%%%%%%%%%%%%%%%%%%%%%%%%%%%        ",
"               *******************@@@@@@@@@@@%%%%%%%%%%%%%%%%%%%&&&%%%%%%%%####%%%%%%%%%%%%%%%%%%%%%%%%%%%%%%%%%        ",
"                   *******@@@@@@@@@@@@@@@%%%%%%%%%%%%%%%%%%%&&&&%%%%%%%####%%%%%%%%%%%%%%%%%%%%%%%%%%%%%%%%%%%%%        ",
"                   *******@@@@@@@@@@@@@@@%%%%%%%%%%%%%%%%%%%&&&&%%%%%%%####%%%%%%%%%%%%%%%%%%%%%%%%%%%%%%%%%%%%%        ",
"                   *******@@@@@@@@@@@@@@@%%%%%%%%%%%%%%%%%%%&&&&%%%%%%%####%%%%%%%%%%%%%%%%%%%%%%%%%%%%%%%%%%%%%        ",
"                   *******@@@@@@@@@@@@@@@%%%%%%%%%%%%%%%%%%%&&&&%%%%%%%####%%%%%%%%%%%%%%%%%%%%%%%%%%%%%%%%%%%%%        ",
"                                  %%%%%%%%%%%%%%%&&&&%%%%%%%&&&&%%%%%%%%%%%&&&&&&&%%%%%%%%%%%%%%%%%%%%%%%%%%%%%%        ",
"                                  %%%%%%%%%%%%%%%&&&&%%%%%%%&&&&%%%%%%%%%%%&&&&&&&%%%%%%%%%%%%%%%%%%%%%%%%%%%%%%        ",
"                                  %%%%%%%%%%%%%%%&&&&%%%%%%%&&&&%%%%%%%%%%%&&&&&&&%%%%%%%%%%%%%%%%%%%%%%%%%%%%%%        ",
"                                  %%%%%%%%%%%&&&&%%%%%%%&&&&%%%%%%%%%%%%%%%%%%%%%%&&&&%%%%%%%%%%%%%%%%%%%%%%%%%%        ",
"                                  %%%%%%%%%%%&&&&%%%%%%%&&&&%%%%%%%%%%%%%%%%%%%%%%&&&&%%%%%%%%%%%%%%%%%%%%%%%%%%        ",
"                                  %%%%%%%%%%%&&&&%%%%%%%&&&&%%%%%%%%%%%%%%%%%%%%%%&&&&%%%%%%%%%%%%%%%%%%%%%%%%%%        ",
"                                  %%%%%%%%%%%&&&&%%%%%%%&&&&%%%%%%%%%%%%%%%%%%%%%%&&&&%%%%%%%%%%%%%%%%%%%%%%%%%%        ",
"                                      %%%&&&&%%%%%%%%&&&%%%%%%%%%%%%%%%%%%%%%%%%%%%%%%@@@@%%%%%%%%%%%%%%%%%%%%%;        ",
"                                      %%%&&&&%%%%%%%%&&&%%%%%%%%%%%%%%%%%%%%%%%%%%%%%%@@@@%%%%%%%%%%%%%%%%%%%%%>        ",
"                                      %%%&&&&%%%%%%%%&&&%%%%%%%%%%%%%%%%%%%%%%%%%%%%%%@@@@%%%%%%%%%%%%%%%%%%%%%,        ",
"                                      %%%&&&&%%%%%%%%&&&%%%%%%%%%%%%%%%%%%%%%%%%%%%%%%@@@@%%%%%%%%%%%%%%%%%%%%%')       ",
"                                         %%%%%%%%&&&&%%%%%%%%%%%%%%%%%%%%%%%%%%%%%%%%%@@@@%%%%%%%%%%%%%%%%%%%   !       ",
"                                         %%%%%%%%&&&&%%%%%%%%%%%%%%%%%%%%%%%%%%%%%%%%%@@@@%%%%%%%%%%%%%%%%%%%   ~       ",
"                                         %%%%%%%%&&&&%%%%%%%%%%%%%%%%%%%%%%%%%%%%%%%%%@@@@%%%%%%%%%%%%%%%%%%%   ~       ",
"                                         %%%%%%%%&&&&%%%%%%%%%%%%%%%%%%%%%%%%%%%%%%%%%@@@@%%%%%%%%%%%%%%%%%%%           ",
"                                                     %%%%%%%%%%%%%%%%%%%%%%%%%%%%%%%%%@@@@                              ",
"                                                     %%%%%%%%%%%%%%%%%%%%%%%%%%%%%%%%%@@@@                              ",
"                                                     %%%%%%%%%%%%%%%%%%%%%%%%%%%%%%%%%@@@@                              ",
"                                                                %%%%%%%%%%%%%%%%%%%%%%                                  ",
"                                                                %%%%%%%%%%%%%%%%%%%%%%                                  ",
"                                                                %%%%%%%%%%%%%%%%%%%%%%                                  ",
"                                                                %%%%%%%%%%%%%%%%%%%%%%                                  ",
"                                                                                                                        ",
"                                                                                                                        ",
"                                                                                                                        ",
"                                                                                                                        ",
"                                                                                                                        ",
"                                                                                                                        ",
"                                                                                                                        ",
"                                                                                                                        ",
"                                                                                                                        ",
"                                                                                                                        ",
"                                                                                                                        ",
"                                                                                                                        ",
"                                                                                                                        ",
"                                                                                                                        ",
"                                                                                                                        ",
"                                                                                                                        ",
"                                                                                                                        ",
"                                                                                                                        ",
"                                                                                                                        ",
"                                                                                                                        ",
"                                                                                                                        ",
"                                                                                                                        ",
"                                                                                                                        ",
"                                                                                                                        ",
"                                                                                                                        ",
"                                                                                                                        "};
