/* XPM */
static char * char_down_xpm[] = {
"120 120 27 1",
" 	c #8D768A",
".	c #8C7589",
"+	c #8A7386",
"@	c #8A7385",
"#	c #877081",
"$	c #877080",
"%	c #866F7F",
"&	c #866F80",
"*	c #8B7487",
"=	c #8B7488",
"-	c #897284",
";	c #A84111",
">	c #8C7588",
",	c #FCA89D",
"'	c #472138",
")	c #9A6168",
"!	c #9B6066",
"~	c #9F5855",
"{	c #A54A36",
"]	c #A64628",
"^	c #BAA368",
"/	c #696A6A",
"(	c #000000",
"_	c #FAFA82",
":	c #FF4D00",
"<	c #FAE898",
"[	c #D41900",
"                                        .+@#$%&%&                              *********=***********=                  .",
"                                                                                                                        ",
"                                                                                                                        ",
"                                                                                                                        ",
"                                                                                                                        ",
"                                                                                                                        ",
"                                                                                                                        ",
"                                                                                                                        ",
"                                                                                                                        ",
"                                                                                                                        ",
"                                                                                                                        ",
"                                                                                                                        ",
"                                                                                                                        ",
"                                                                                                                        ",
"                                                                                                                        ",
"                                                                                                                        ",
"                                                                                                                        ",
"                                                                                                                        ",
"                                                                                                                        ",
"                                                                                                                        ",
"                                                                                                                        ",
"                                                                                                                        ",
"                                                                                                                        ",
"                                                                                                                        ",
"                                                                                                                        ",
"                                                                                                                        ",
"       -                          ;;;;;;;;;;;;;;;;;;;;;;                                                                ",
"       >                          ;;;;;;;;;;;;;;;;;;;;;;                                                                ",
"       .                          ;;;;;;;;;;;;;;;;;;;;;;                                                                ",
"                                  ;;;;;;;;;;;;;;;;;;;;;;                                                                ",
"                              ,,,,;;;;;;;;;;;;;;;;;;;;;;;;;;;;;;;;;                                                     ",
"                              ,,,,;;;;;;;;;;;;;;;;;;;;;;;;;;;;;;;;;                                                     ",
"                              ,,,,;;;;;;;;;;;;;;;;;;;;;;;;;;;;;;;;;                                                     ",
"           ;;;;;;;;;;;;;;;;;;;,,,,;;;;;;;;;;;;;;;;;;;;;;;;;;;;;;;;;'''';;;;;;;;                                         ",
"           ;;;;;;;;;;;;;;;;;;;,,,,;;;;;;;;;;;;;;;;;;;;;;;;;;;;;;;;;'''';;;;;;;;                                         ",
"           ;;;;;;;;;;;;;;;;;;;,,,,;;;;;;;;;;;;;;;;;;;;;;;;;;;;;;;;;'''';;;;;;;;                                         ",
"           ;;;;;;;;;;;;;;;;;;;,,,,;;;;;;;;;;;;;;;;;;;;;;;;;;;;;;;;;'''';;;;;;;;                                         ",
"        );;;;;;;;;;;;;;;;;;;;;,,,,;;;;;;;;;;;;;;;;;;;;;;;;;;;;;;''';;;;;;;;'''';;;                                      ",
"        !;;;;;;;;;;;;;;;;;;;;;,,,,;;;;;;;;;;;;;;;;;;;;;;;;;;;;;;''';;;;;;;;'''';;;                                      ",
"        ~;;;;;;;;;;;;;;;;;;;;;,,,,;;;;;;;;;;;;;;;;;;;;;;;;;;;;;;''';;;;;;;;'''';;;                                      ",
"        ~;;;;;;;;;;;;;;;;;;;;;,,,,;;;;;;;;;;;;;;;;;;;;;;;;;;;;;;''';;;;;;;;'''';;;                                      ",
"        {;;;;;;;;;;;;;;;;;;;;;;;;;'''';;;;;;;;;;;;;;;;;;;;;;'''';;;;;;;'''';;;;;;;;;;;                                  ",
"        ];;;;;;;;;;;;;;;;;;;;;;;;;'''';;;;;;;;;;;;;;;;;;;;;;'''';;;;;;;'''';;;;;;;;;;;                                  ",
"        ;;;;;;;;;;;;;;;;;;;;;;;;;;'''';;;;;;;;;;;;;;;;;;;;;;'''';;;;;;;'''';;;;;;;;;;;                                  ",
"        ;;;;;;;;;;;;;;;;;;;;;;;;;;'''';;;;;;;;;;;;;;;;;;;;;;'''';;;;;;;'''';;;;;;;;;;;                                  ",
"        ;;;;;;;;;;;;;;;;;;;;;;;;;;;;;;''''''';;;;;;;;;;;'''';;;;;;;'''';;;;;;;;;;;;;;;                                  ",
"        ;;;;;;;;;;;;;;;;;;;;;;;;;;;;;;''''''';;;;;;;;;;;'''';;;;;;;'''';;;;;;;;;;;;;;;                                  ",
"        ;;;;;;;;;;;;;;;;;;;;;;;;;;;;;;''''''';;;;;;;;;;;'''';;;;;;;'''';;;;;;;;;;;;;;;                                  ",
"        ;;;;;;;;;;;;;;;;;;;;;;;;;;;;;;;;;;;;;^^^^;;;;;;;'''';;;;;;;;;;;;;;;;;;;,,,,,,,,,,,,,,,///////                   ",
"        ;;;;;;;;;;;;;;;;;;;;;;;;;;;;;;;;;;;;;^^^^;;;;;;;'''';;;;;;;;;;;;;;;;;;;,,,,,,,,,,,,,,,///////                   ",
"        ;;;;;;;;;;;;;;;;;;;;;;;;;;;;;;;;;;;;;^^^^;;;;;;;'''';;;;;;;;;;;;;;;;;;;,,,,,,,,,,,,,,,///////                   ",
"        ;;;;;;;;;;;;;;;;;;;;;;;;;;;;;;;;;;;;;^^^^;;;;;;;'''';;;;;;;;;;;;;;;;;;;,,,,,,,,,,,,,,,///////                   ",
"        ;;;;;;;;;;;;;;;;;;;;;;;;;;;;;;;;;^^^^;;;;;;;;''';;;;;;;;;;;;;;;;;;;,,,,,,,,,,,///////////////////               ",
"        ;;;;;;;;;;;;;;;;;;;;;;;;;;;;;;;;;^^^^;;;;;;;;''';;;;;;;;;;;;;;;;;;;,,,,,,,,,,,///////////////////               ",
"        ;;;;;;;;;;;;;;;;;;;;;;;;;;;;;;;;;^^^^;;;;;;;;''';;;;;;;;;;;;;;;;;;;,,,,,,,,,,,///////////////////               ",
"        ;;;;;;;;;;;;;;;;;;;;;;;;;;;;;;;;;^^^^;;;;;;;;''';;;;;;;;;;;;;;;;;;;,,,,,,,,,,,///////////////////               ",
"        ;;;;;;;;;;;;;;;;;;;;;;;;;;;;;;;;;^^^^;;;;;;;;''';;;;;;;;;;;;;;;;;;;,,,,,,,,,,,,,,,,,,,,,,////,,,,               ",
"        ;;;;;;;;;;;;;;;;;;;;;;;;;;;;;;;;;^^^^;;;;;;;;''';;;;;;;;;;;;;;;;;;;,,,,,,,,,,,,,,,,,,,,,,////,,,,               ",
"        ;;;;;;;;;;;;;;;;;;;;;;;;;;;;;;;;;^^^^;;;;;;;;''';;;;;;;;;;;;;;;;;;;,,,,,,,,,,,,,,,,,,,,,,////,,,,               ",
"        ;;;;;;;;;;;;;;;;;;;;;;;;;;;;;;;;;^^^^;;;;;;;;''';;;;;;;;;;;;;;;;;;;,,,,,,,,,,,,,,,,,,,,,,////,,,,               ",
"        ;;;;;;;;;;;;;;;;;;;;;;;;;;;;;;;;;^^^^;;;;;;;;''';;;;;;;;;;;;;;;,,,,,,,,,,,,,,,,,,,((((,,,////,,,,               ",
"        ;;;;;;;;;;;;;;;;;;;;;;;;;;;;;;;;;^^^^;;;;;;;;''';;;;;;;;;;;;;;;,,,,,,,,,,,,,,,,,,,((((,,,////,,,,               ",
"        ;;;;;;;;;;;;;;;;;;;;;;;;;;;;;;;;;^^^^;;;;;;;;''';;;;;;;;;;;;;;;,,,,,,,,,,,,,,,,,,,((((,,,////,,,,               ",
"        ;;;;;;;;;;;;;;;;;;;;;;;;;;;;;;;;;^^^^;;;;;;;;''';;;;;;;;;;;;;;;,,,,,,,,,,,,,,,,,,,((((,,,////,,,,               ",
"        ;;;;;;;;;;;;;;;;;;;;;;;;;;;;;;;;;^^^^;;;;;;;;''';;;;;;;;;;;;;;;,,,,,,,,,,,,,,,,,,,((((,,,////,,,,               ",
"        ;;;;;;;;;;;;;;;;;;;;;;;;;;;;;;;;;^^^^;;;;;;;;''';;;;;;;;;;;;;;;,,,,,,,,,,,,,,,,,,,((((,,,////,,,,               ",
"        ;;;;;;;;;;;;;;;;;;;;;;;;;;;;;;;;;^^^^;;;;;;;;''';;;;;;;;;;;;;;;,,,,,,,,,,,,,,,,,,,((((,,,////,,,,               ",
"        ;;;;;;;;;;;;;;;;;;^^^^^^^^^^^^_______;;;;;;;;''';;;;;;;;;;;;;;;,,,,,,,,,,,,,,,,,,,,,,,,,,////,,,,               ",
"        ;;;;;;;;;;;;;;;;;;^^^^^^^^^^^^_______;;;;;;;;''';;;;;;;;;;;;;;;,,,,,,,,,,,,,,,,,,,,,,,,,,////,,,,               ",
"        ;;;;;;;;;;;;;;;;;;^^^^^^^^^^^^_______;;;;;;;;''';;;;;;;;;;;;;;;,,,,,,,,,,,,,,,,,,,,,,,,,,////,,,,               ",
"        ;;;;;;;;;;;;;;;;;;^^^^^^^^^^^^_______;;;;;;;;''';;;;;;;;;;;;;;;,,,,,,,,,,,,,,,,,,,,,,,,,,////,,,,               ",
"        ;;;;;;;;;;;;;;;;;;;;;;;;;;;;;;_______;;;;;;;;''';;;;;;;;;;;;;;;;;;;,,,,,,,,,,,,,,,,,,,,,,////////               ",
"        ;;;;;;;;;;;;;;;;;;;;;;;;;;;;;;_______;;;;;;;;''';;;;;;;;;;;;;;;;;;;,,,,,,,,,,,,,,,,,,,,,,////////               ",
"        ;;;;;;;;;;;;;;;;;;;;;;;;;;;;;;_______;;;;;;;;''';;;;;;;;;;;;;;;;;;;,,,,,,,,,,,,,,,,,,,,,,////////               ",
"        ;;;;;;;;;;;;;;;;;;;;;;;;;;;;;;_______;;;;;;;;''';;;;;;;;;;;;;;;;;;;,,,,,,,,,,,,,,,,,,,,,,////////               ",
"           ;;;;;;;;;;;;;;;;;;;;;;;;;;;;;;^^^^;;;;;;;;''';;;;;;;;;;;;;;;;;;;;;;;,,,,,,,,,,,((((,,,////                   ",
"           ;;;;;;;;;;;;;;;;;;;;;;;;;;;;;;^^^^;;;;;;;;''';;;;;;;;;;;;;;;;;;;;;;;,,,,,,,,,,,((((,,,////                   ",
"           ;;;;;;;;;;;;;;;;;;;;;;;;;;;;;;^^^^;;;;;;;;''';;;;;;;;;;;;;;;;;;;;;;;,,,,,,,,,,,((((,,,////                   ",
"           ;;;;;;;;;;;;;;;;;;;;;;;;;;;;;;;;;;^^^^;;;;;;;'''';;;;;;;;;;;;;;;                                             ",
"           ;;;;;;;;;;;;;;;;;;;;;;;;;;;;;;;;;;^^^^;;;;;;;'''';;;;;;;;;;;;;;;                                             ",
"           ;;;;;;;;;;;;;;;;;;;;;;;;;;;;;;;;;;^^^^;;;;;;;'''';;;;;;;;;;;;;;;                                             ",
"           ;;;;;;;;;;;;;;;;;;;;;;;;;;;;;;;;;;^^^^;;;;;;;'''';;;;;;;;;;;;;;;                                             ",
"                                             ::::::::;;;'''''''';;;;;;;                                                 ",
"                                             ::::::::;;;'''''''';;;;;;;                                                 ",
"                                             ::::::::;;;'''''''';;;;;;;                                                 ",
"                                             ::::::::;;;'''''''';;;;;;;                                                 ",
"                                         :::::::::::::::<<<<                                                            ",
"                                         :::::::::::::::<<<<                                                            ",
"                                         :::::::::::::::<<<<                                                            ",
"                                         :::::::::::::::<<<<                                                            ",
"                                         ::::,,,,:::::::<<<<                                                            ",
"                                         ::::,,,,:::::::<<<<                                                            ",
"                                         ::::,,,,:::::::<<<<                                                            ",
"                                         ,,,,,,,,:::::::<<<<                                                            ",
"                                         ,,,,,,,,:::::::<<<<                                                            ",
"                                         ,,,,,,,,:::::::<<<<                                                            ",
"                                         ,,,,,,,,:::::::<<<<                                                            ",
"                                         ,,,,,,,,:::::::^^^^<<<<                                                        ",
"                                         ,,,,,,,,:::::::^^^^<<<<                                                        ",
"                                         ,,,,,,,,:::::::^^^^<<<<                                                        ",
"                                         ,,,,,,,,:::::::^^^^<<<<                                                        ",
"                                             ,,,,[[[[[[[[[[[<<<<<<<                                                     ",
"                                             ,,,,[[[[[[[[[[[<<<<<<<                                                     ",
"                                             ,,,,[[[[[[[[[[[<<<<<<<                                                     ",
"                                             ,,,,[[[[[[[[[[[<<<<<<<                                                     ",
"                                                        [[[[[[[[                                                        ",
"                                                        [[[[[[[[                                                        ",
"                                                        [[[[[[[[                                                        ",
"                                                                                                                        ",
"                                                                                                                        ",
"                                                                                                                        ",
"                                                                                                                        ",
"                                                                                                                        ",
"                                                                                                                        ",
"                                                                                                                        ",
"                                                                                                                        ",
"                                                                                                                        ",
"                                                                                                                        ",
"                                                                                                                        ",
"                                                                                                                        "};
