/* XPM */
static char * closed_door_xpm[] = {
"120 120 65 1",
" 	c #8D768A",
".	c #887182",
"+	c #D77A5B",
"@	c #E17B50",
"#	c #7B646D",
"$	c #8A7385",
"%	c #8C7589",
"&	c #8C7588",
"*	c #877081",
"=	c #8D7689",
"-	c #8B7487",
";	c #8A7285",
">	c #877080",
",	c #846D7C",
"'	c #7E6772",
")	c #7D6570",
"!	c #DC7B56",
"~	c #755E62",
"{	c #897283",
"]	c #C7796A",
"^	c #846D7B",
"/	c #745C60",
"(	c #8A7386",
"_	c #866F80",
":	c #826B79",
"<	c #6F5756",
"[	c #A84111",
"}	c #211D1D",
"|	c #70162B",
"1	c #C07970",
"2	c #BD7972",
"3	c #B97874",
"4	c #B47878",
"5	c #B17879",
"6	c #AF787B",
"7	c #B77875",
"8	c #C7796B",
"9	c #CB7967",
"0	c #CF7A64",
"a	c #A44C3A",
"b	c #A6472B",
"c	c #FAFA82",
"d	c #856E7E",
"e	c #887183",
"f	c #816A77",
"g	c #9F5959",
"h	c #9D5C5D",
"i	c #9C5E62",
"j	c #887185",
"k	c #7F6A7C",
"l	c #756273",
"m	c #A35044",
"n	c #A1544C",
"o	c #40363E",
"p	c #332B30",
"q	c #866F7F",
"r	c #8B7486",
"s	c #7E6A7B",
"t	c #5D4E5A",
"u	c #715E6F",
"v	c #897284",
"w	c #856F82",
"x	c #887285",
"y	c #665665",
"z	c #877184",
"                                                .+@@@@@@@@@@@@@@@@@@@@@#$                                               ",
"                                                .+@@@@@@@@@@@@@@@@@@@@@#$                                               ",
"                                            %%&$*+@@@@@@@@@@@@@@@@@@@@@#.$$$$$$$$$%                                     ",
"                                    =-;>,,'')####!@@@@@@@@@@@@@@@@@@@@@~##########{                                     ",
"                                   -*]@@@@@@@@@@@@@@@@@@@@@@@@@@@@@@@@@@@@@@@@@@@@                                      ",
"                                 %-^/!@@@@@@@@@@@@@@@@@@@@@@@@@@@@@@@@@@@@@@@@@@@@                                      ",
"                            %&&((_:'<@@@@@@@@@@@@@@@@@@@@@@@@@@@@@@@@@@@@@@@@@@@@@                                      ",
"                              @@@@@@@@@@@@@@@@@@@@@@@@@@@@@@@@@@@@@@@@@@@@@@@@@@@@@@@@@@@@                              ",
"                              @@@@@@@@@@@@@@@@@@@@@@@@@@@@@@@@@@@@@@@@@@@@@@@@@@@@@@@@@@@@                              ",
"                              @@@@@@@@@@@@@@@@@@@@@@@@@@@@@@@@@@@@@@@@@@@@@@@@@@@@@@@@@@@@                              ",
"                              @@@@@@@@@@@@@@@@@@@@@@@@@@@@@@@@@@@@@@@@@@@@@@@@@@@@@@@@@@@@                              ",
"                          @@@@@@@@@@@@@@@@@@@[[[[[[[[[[[[[[[[[[[[[[[[[[[[[[@@@@@@@@@@@@@@@@@@@                          ",
"                          @@@@@@@@@@@@@@@@@@@[[[[[[[[[[[[[[[[[[[[[[[[[[[[[[@@@@@@@@@@@@@@@@@@@                          ",
"                          @@@@@@@@@@@@@@@@@@@[[[[[[[[[[[[[[[[[[[[[[[[[[[[[[@@@@@@@@@@@@@@@@@@@                          ",
"                          @@@@@@@@@@@@@@@@@@@[[[[[[[[[[[[[[[[[[[[[[[[[[[[[[@@@@@@@@@@@@@@@@@@@                          ",
"                      @@@@@@@@@@@@@@@[[[[[[[[[[[[[[[[[[[[[[[[[[[[[[[[[[[[[[[[[[[[[@@@@@@@@@@@@@@@                       ",
"                      @@@@@@@@@@@@@@@[[[[[[[[[[[[[[[[[[[[[[[[[[[[[[[[[[[[[[[[[[[[[@@@@@@@@@@@@@@@                       ",
"                      @@@@@@@@@@@@@@@[[[[[[[[[[[[[[[[[[[[[[[[[[[[[[[[[[[[[[[[[[[[[@@@@@@@@@@@@@@@                       ",
"                      @@@@@@@@@@@@@@@[[[[[[[[[[[[[[[[[[[[[[[[[[[[[[[[[[[[[[[[[[[[[@@@@@@@@@@@@@@@                       ",
"                   @@@@@@@@@@@[[[[[[[[[[[[[[[[[[[[[[[[[[[[[[[[[[[[[[[[[[[[[[[[[[[[[[[[[[[[@@@@@@@@@@@                   ",
"                   @@@@@@@@@@@[[[[[[[[[[[[[[[[[[[[[[[[[[[[[[[[[[[[[[[[[[[[[[[[[[[[[[[[[[[[@@@@@@@@@@@                   ",
"                   @@@@@@@@@@@[[[[[[[[[[[[[[[[[[[[[[[[[[[[[[[[[[[[[[[[[[[[[[[[[[[[[[[[[[[[@@@@@@@@@@@                   ",
"               @@@@@@@@@@@[[[[[[[[[[[[[[[[[[[[[[[}}}}}}}}}}}}}}}}}}}}}}[[[[[[[[[[[[[[[[[[[[[[[@@@@@@@@@@@               ",
"               @@@@@@@@@@@[[[[[[[[[[[[[[[[[[[[[[[}}}}}}}}}}}}}}}}}}}}}}[[[[[[[[[[[[[[[[[[[[[[[@@@@@@@@@@@               ",
"               @@@@@@@@@@@[[[[[[[[[[[[[[[[[[[[[[[}}}}}}}}}}}}}}}}}}}}}}[[[[[[[[[[[[[[[[[[[[[[[@@@@@@@@@@@               ",
"               @@@@@@@@@@@[[[[[[[[[[[[[[[[[[[[[[[}}}}}}}}}}}}}}}}}}}}}}[[[[[[[[[[[[[[[[[[[[[[[@@@@@@@@@@@               ",
"           @@@@@@@@@@@[[[[[[[[[[[[[[[[[[[}}}}}}}}}}}}}}}}}}}}}}}}}}}}}}}}}}}}}}[[[[[[[[[[[[[[[[[[@@@@@@@@@@@@           ",
"           @@@@@@@@@@@[[[[[[[[[[[[[[[[[[[}}}}}}}}}}}}}}}}}}}}}}}}}}}}}}}}}}}}}}[[[[[[[[[[[[[[[[[[@@@@@@@@@@@@           ",
"           @@@@@@@@@@@[[[[[[[[[[[[[[[[[[[}}}}}}}}}}}}}}}}}}}}}}}}}}}}}}}}}}}}}}[[[[[[[[[[[[[[[[[[@@@@@@@@@@@@           ",
"           @@@@@@@@@@@[[[[[[[[[[[[[[[[[[[}}}}}}}}}}}}}}}}}}}}}}}}}}}}}}}}}}}}}}[[[[[[[[[[[[[[[[[[@@@@@@@@@@@@           ",
"           @@@@@@@@[[[[[[[[[[[[[[[[[[}}}}}}}}}}}}[[[[[[[[[[[[[[[[[[[[[[}}}}}}}}}}}[[[[[[[[[[[[[[[[[[[@@@@@@@@           ",
"           @@@@@@@@[[[[[[[[[[[[[[[[[[}}}}}}}}}}}}[[[[[[[[[[[[[[[[[[[[[[}}}}}}}}}}}[[[[[[[[[[[[[[[[[[[@@@@@@@@           ",
"           @@@@@@@@[[[[[[[[[[[[[[[[[[}}}}}}}}}}}}[[[[[[[[[[[[[[[[[[[[[[}}}}}}}}}}}[[[[[[[[[[[[[[[[[[[@@@@@@@@           ",
"           @@@@@@@@[[[[[[[[[[[[[[[[[[}}}}}}}}}}}}[[[[[[[[[[[[[[[[[[[[[[}}}}}}}}}}}[[[[[[[[[[[[[[[[[[[@@@@@@@@           ",
"       @@@@@@@@[[[[[[[[[[[[[[[[[[[}}}}}}}[[[[||||[[[[[[[[[[[[[[[[[[[[[[[[[[[[[[}}}}}}}[[[[[[[[[[[[[[[[[[[@@@@@@@        ",
"       @@@@@@@@[[[[[[[[[[[[[[[[[[[}}}}}}}[[[[||||[[[[[[[[[[[[[[[[[[[[[[[[[[[[[[}}}}}}}[[[[[[[[[[[[[[[[[[[@@@@@@@        ",
"       @@@@@@@@[[[[[[[[[[[[[[[[[[[}}}}}}}[[[[||||[[[[[[[[[[[[[[[[[[[[[[[[[[[[[[}}}}}}}[[[[[[[[[[[[[[[[[[[@@@@@@@        ",
"       @@@@[[[[[[[[[[[[[[[[[[[}}}}}}}[[[[[[[[||||[[[[[[[[[[[[[[[[[[[[[[[[[[[[[[[[[}}}}}}}}[[[[[[[[[[[[[[[[[[[@@@    =   ",
"       @@@@[[[[[[[[[[[[[[[[[[[}}}}}}}[[[[[[[[||||[[[[[[[[[[[[[[[[[[[[[[[[[[[[[[[[[}}}}}}}}[[[[[[[[[[[[[[[[[[[@@@    %   ",
"       @@@@[[[[[[[[[[[[[[[[[[[}}}}}}}[[[[[[[[||||[[[[[[[[[[[[[[[[[[[[[[[[[[[[[[[[[}}}}}}}}[[[[[[[[[[[[[[[[[[[@@@    -   ",
"       @@@@[[[[[[[[[[[[[[[[[[[}}}}}}}[[[[[[[[||||[[[[[[[[[[[[[[[[[[[[[[[[[[[[[[[[[}}}}}}}}[[[[[[[[[[[[[[[[[[[@@@    $   ",
"       @@@@[[[[[[[[[[[[[[[}}}}}}}}[[[[[[[[[[[||||[[[[[[[[[[[[[[[[[[[[[[[[[[[[[[[[[[[[[}}}}}}}}[[[[[[[[[[[[[[[@@@        ",
"       @@@@[[[[[[[[[[[[[[[}}}}}}}}[[[[[[[[[[[||||[[[[[[[[[[[[[[[[[[[[[[[[[[[[[[[[[[[[[}}}}}}}}[[[[[[[[[[[[[[[@@@        ",
"       @@@@[[[[[[[[[[[[[[[}}}}}}}}[[[[[[[[[[[||||[[[[[[[[[[[[[[[[[[[[[[[[[[[[[[[[[[[[[}}}}}}}}[[[[[[[[[[[[[[[@@@        ",
"       @@@@[[[[[[[[[[[[[[[}}}}}}}}[[[[[[[[[[[||||[[[[[[[[[[[[[[[[[[[[[[[[[[[[[[[[[[[[[}}}}}}}}[[[[[[[[[[[[[[[@@@        ",
"    ]@@[[[[[[[[[[[[[[[}}}}}}}}[[[[[[[[[[[[[[[[[[[[[[[[[[[[[[[[[[[[[[[[[||||[[[[[[[[[[[[[[[}}}}}}}[[[[[[[[[[[[[[[@@@@    ",
"    1@@[[[[[[[[[[[[[[[}}}}}}}}[[[[[[[[[[[[[[[[[[[[[[[[[[[[[[[[[[[[[[[[[||||[[[[[[[[[[[[[[[}}}}}}}[[[[[[[[[[[[[[[@@@@    ",
"    1@@[[[[[[[[[[[[[[[}}}}}}}}[[[[[[[[[[[[[[[[[[[[[[[[[[[[[[[[[[[[[[[[[||||[[[[[[[[[[[[[[[}}}}}}}[[[[[[[[[[[[[[[@@@@    ",
"    2@@[[[[[[[[[[[[[[[}}}}}}}}[[[[[[[[[[[[[[[[[[[[[[[[[[[[[[[[[[[[[[[[[||||[[[[[[[[[[[[[[[}}}}}}}[[[[[[[[[[[[[[[@@@@    ",
"    3@@[[[[[[[[[[[[[[[}}}}}}}}[[[[[[[[[[[[[[[[[[[[[[[[[[[[[[[[[[[[[[[[[||||[[[[[[[[[[[[[[[}}}}}}}[[[[[[[[[[[[[[[@@@@    ",
"    3@@[[[[[[[[[[[[[[[}}}}}}}}[[[[[[[[[[[[[[[[[[[[[[[[[[[[[[[[[[[[[[[[[||||[[[[[[[[[[[[[[[}}}}}}}[[[[[[[[[[[[[[[@@@@    ",
"    4@@[[[[[[[[[[[[[[[}}}}}}}}[[[[[[[[[[[[[[[[[[[[[[[[[[[[[[[[[[[[[[[[[||||[[[[[[[[[[[[[[[}}}}}}}[[[[[[[[[[[[[[[@@@@    ",
"    4@@[[[[[[[[[[[[}}}}}}}[[[[[[[[[[[[[[[[[[[[[[[[[[[[[[[[[[[[[[[[[[[[[||||[[[[[[[[[[[[[[[[[[[}}}}}}}[[[[[[[[[[[@@@@    ",
"    5@@[[[[[[[[[[[[}}}}}}}[[[[[[[[[[[[[[[[[[[[[[[[[[[[[[[[[[[[[[[[[[[[[||||[[[[[[[[[[[[[[[[[[[}}}}}}}[[[[[[[[[[[@@@@    ",
"    6@@[[[[[[[[[[[[}}}}}}}[[[[[[[[[[[[[[[[[[[[[[[[[[[[[[[[[[[[[[[[[[[[[||||[[[[[[[[[[[[[[[[[[[}}}}}}}[[[[[[[[[[[@@@@    ",
"    6@@[[[[[[[[[[[[}}}}}}}[[[[[[[[[[[[[[[[[[[[[[[[[[[[[[[[[[[[[[[[[[[[[||||[[[[[[[[[[[[[[[[[[[}}}}}}}[[[[[[[[[[[@@@@    ",
"    7@@[[[[[[[[[[[[}}}}}}}[[[[[[[[[[[[[[[[[[[[[[[[[[[[[[[[[[[[[[[[[[[[[||||[[[[[[[[[[[[[[[[[[[}}}}}}}[[[[[[[[[[[@@@@    ",
"    1@@[[[[[[[[[[[[}}}}}}}[[[[[[[[[[[[[[[[[[[[[[[[[[[[[[[[[[[[[[[[[[[[[||||[[[[[[[[[[[[[[[[[[[}}}}}}}[[[[[[[[[[[@@@@    ",
"    1@@[[[[[[[[[[[[}}}}}}}[[[[[[[[[[[[[[[[[[[[[[[[[[[[[[[[[[[[[[[[[[[[[||||[[[[[[[[[[[[[[[[[[[}}}}}}}[[[[[[[[[[[@@@@    ",
"    8@@[[[[[[[[[[[[}}}}}}}[[[[[[[[[[[[[[[[[[[[[[[[[[[[[[[[[[[[[[[[[[[[[||||[[[[[[[[[[[[[[[[[[[}}}}}}}[[[[[[[[[[[@@@@    ",
"    8@@[[[[[[[[[[[[}}}}}}}[[[[[[[[[[[[[[[[[[[||||[[[[[[[[[[[[[[[[[[[[[[||||[[[[[[[[[[[[[[[[[[[}}}}}}}[[[[[[[[[[[@@@@    ",
"    9@@[[[[[[[[[[[[}}}}}}}[[[[[[[[[[[[[[[[[[[||||[[[[[[[[[[[[[[[[[[[[[[||||[[[[[[[[[[[[[[[[[[[}}}}}}}[[[[[[[[[[[@@@@    ",
"    0@@[[[[[[[[[[[[}}}}}}}[[[[[[[[[[[[[[[[[[[||||[[[[[[[[[[[[[[[[[[[[[[||||[[[[[[[[[[[[[[[[[[[}}}}}}}[[[[[[[[[[[@@@@    ",
"    0@@[[[[[[[[[[[[}}}}}}}[[[[[[[[[[[[[[[[[[[||||[[[[[[[[[[[[[[[[[[[[[[||||[[[[[[[[[[[[[[[[[[[}}}}}}}[[[[[[[[[[[@@@@    ",
"    a[[[[[[[[[[[[[[}}}}}}}[[[[[[[[[[[[[[[[[[[||||[[[[[[[[[[[[[[[[[[[[[[[[[[[[[[[[[[[[[[[[[[[[[}}}}}}}[[[[[[[[[[[[[[[    ",
"    a[[[[[[[[[[[[[[}}}}}}}[[[[[[[[[[[[[[[[[[[||||[[[[[[[[[[[[[[[[[[[[[[[[[[[[[[[[[[[[[[[[[[[[[}}}}}}}[[[[[[[[[[[[[[[    ",
"    b[[[[[[[[[[[[[[}}}}}}}[[[[[[[[[[[[[[[[[[[||||[[[[[[[[[[[[[[[[[[[[[[[[[[[[[[[[[[[[[[[[[[[[[}}}}}}}[[[[[[[[[[[[[[[    ",
"   =[[[[[[[[[[[[[[[}}}}}}}[[[[[[[[[[[[[[[[[[[||||[[[[[[[[[[[[[[[[[[[[[[[[[[[[[[ccccccc[[[[[[[[}}}}}}}[[[[[[[[[[[[[[[    ",
"   =[[[[[[[[[[[[[[[}}}}}}}[[[[[[[[[[[[[[[[[[[||||[[[[[[[[[[[[[[[[[[[[[[[[[[[[[[ccccccc[[[[[[[[}}}}}}}[[[[[[[[[[[[[[[    ",
"   -[[[[[[[[[[[[[[[}}}}}}}[[[[[[[[[[[[[[[[[[[||||[[[[[[[[[[[[[[[[[[[[[[[[[[[[[[ccccccc[[[[[[[[}}}}}}}[[[[[[[[[[[[[[[    ",
"   -[[[[[[[[[[[[[[[}}}}}}}[[[[[[[[[[[[[[[[[[[||||[[[[[[[[[[[[[[[[[[[[[[[[[[[[[[ccccccc[[[[[[[[}}}}}}}[[[[[[[[[[[[[[[    ",
"    [[[[[[[[[[[[[[[}}}}}}}[[[[[[[[[[[[[[[[[[[||||[[[[[[[[[[[[[[[[[[[[[[[[[[ccccccccccccccc[[[[}}}}}}}[[[[[[[[[[[[[[[_   ",
"    [[[[[[[[[[[[[[[}}}}}}}[[[[[[[[[[[[[[[[[[[||||[[[[[[[[[[[[[[[[[[[[[[[[[[ccccccccccccccc[[[[}}}}}}}[[[[[[[[[[[[[[[_   ",
"    [[[[[[[[[[[[[[[}}}}}}}[[[[[[[[[[[[[[[[[[[||||[[[[[[[[[[[[[[[[[[[[[[[[[[ccccccccccccccc[[[[}}}}}}}[[[[[[[[[[[[[[[_   ",
"    [[[[[[[[[[[[[[[}}}}}}}[[[[[[[[[[[[[[[[[[[||||[[[[[[[[[[[[[[[[[[[[[[[[[[ccccccccccccccc[[[[}}}}}}}[[[[[[[[[[[[[[[_   ",
"    [[[[[[[[[[[[[[[}}}}}}}[[[[[[[[[[[[[[[[[[[||||[[[[[[[[[[[[[[[[[[[[[[[[[[ccccccccccccccc[[[[}}}}}}}[[[[[[[[[[[[[[[*   ",
"    [[[[[[[[[[[[[[[}}}}}}}[[[[[[[[[[[[[[[[[[[||||[[[[[[[[[[[[[[[[[[[[[[[[[[ccccccccccccccc[[[[}}}}}}}[[[[[[[[[[[[[[[*   ",
"    [[[[[[[[[[[[[[[}}}}}}}[[[[[[[[[[[[[[[[[[[||||[[[[[[[[[[[[[[[[[[[[[[[[[[ccccccccccccccc[[[[}}}}}}}[[[[[[[[[[[[[[[.   ",
"    [[[[[[[[[[[[[[[}}}}}}}[[[[[[[[[[[[[[[[[[[||||[[[[[[[[[[[[[[[[[[[[[[[[[[ccccccccccccccc[[[[}}}}}}}[[[[[[[[[[[[[[[.   ",
"    [[[[[[[[[[[[[[[}}}}}}}[[[[[[[[[[[[[[[[[[[[[[[[[[[[[[[[[[[[[[[[[[[[[[[[[||||ccccccc||||[[[[}}}}}}}[[[[[[[[[[[[[[[.   ",
"    [[[[[[[[[[[[[[[}}}}}}}[[[[[[[[[[[[[[[[[[[[[[[[[[[[[[[[[[[[[[[[[[[[[[[[[||||ccccccc||||[[[[}}}}}}}[[[[[[[[[[[[[[[$   ",
"    [[[[[[[[[[[[[[[}}}}}}}[[[[[[[[[[[[[[[[[[[[[[[[[[[[[[[[[[[[[[[[[[[[[[[[[||||ccccccc||||[[[[}}}}}}}[[[[[[[[[[[[[[[d   ",
"    [[[[[[[[[[[[[[[}}}}}}}[[[[[[[[[[[[[[[[[[[[[[[[[[[[[[[[[[[[[[[[[[[[[[[[[[[[[|||||||[[[[[[[[}}}}}}}[[[[[[[[[[[[[[[>   ",
"    [[[[[[[[[[[[[[[}}}}}}}[[[[[[[[[[[[[[[[[[[[[[[[[[[[[[[[[[[[[[[[[[[[[[[[[[[[[|||||||[[[[[[[[}}}}}}}[[[[[[[[[[[[[[[>   ",
"    [[[[[[[[[[[[[[[}}}}}}}[[[[[[[[[[[[[[[[[[[[[[[[[[[[[[[[[[[[[[[[[[[[[[[[[[[[[|||||||[[[[[[[[}}}}}}}[[[[[[[[[[[[[[[d   ",
"    [[[[[[[[[[[[[[[}}}}}}}[[[[[[[[[[[[[[[[[[[[[[[[[[[[[[[[[[[[[[[[[[[[[[[[[[[[[|||||||[[[[[[[[}}}}}}}[[[[[[[[[[[[[[[.   ",
"    [[[[[[[[[[[[[[[}}}}}}}[[[[[[[[[[[[[[[[[[[[[[[[[[[[[[[[[[[[[[[[[[[[[[[[[[[[[[[[[[[[[[[[[[[[}}}}}}}[[[[[[[[[[[[[[[e   ",
"    [[[[[[[[[[[[[[[}}}}}}}[[[[[[[[[[[[[[[[[[[[[[[[[[[[[[[[[[[[[[[[[[[[[[[[[[[[[[[[[[[[[[[[[[[[}}}}}}}[[[[[[[[[[[[[[[{   ",
"    [[[[[[[[[[[[[[[}}}}}}}[[[[[[[[[[[[[[[[[[[[[[[[[[[[[[[[[[[[[[[[[[[[[[[[[[[[[[[[[[[[[[[[[[[[}}}}}}}[[[[[[[[[[[[[[[e   ",
"    [[[[[[[[[[[[[[[}}}}}}}[[[[[[[[[[[[[[[[[[[[[[[[[[[[[[[[[[[[[[[[[[[[[[[[[[[[[[[[[[[[[[[[[[[[}}}}}}}[[[[[[[[[[[[[[[e   ",
"    [[[[[[[[[[[[[[[}}}}}}}[[[[[[[[[[[[[[[[[[[[[[[[[[[[[[[[[[[[[[[[[[[[[||||[[[[[[[[[[[[[[[[[[[}}}}}}}[[[[[[[[[[[[[[[.   ",
"    [[[[[[[[[[[[[[[}}}}}}}[[[[[[[[[[[[[[[[[[[[[[[[[[[[[[[[[[[[[[[[[[[[[||||[[[[[[[[[[[[[[[[[[[}}}}}}}[[[[[[[[[[[[[[[*   ",
"    [[[[[[[[[[[[[[[}}}}}}}[[[[[[[[[[[[[[[[[[[[[[[[[[[[[[[[[[[[[[[[[[[[[||||[[[[[[[[[[[[[[[[[[[}}}}}}}[[[[[[[[[[[[[[[*   ",
"    [[[[[[[[[[[[[[[}}}}}}}[[[[[[[[[[[[[[[[[[[[[[[[[[[[[[[[[[[[[[[[[[[[[||||[[[[[[[[[[[[[[[[[[[}}}}}}}[[[[[[[[[[[[[[[,   ",
"    [[[[[[[[[[[[[[[}}}}}}}[[[[[[[[[[[[[[[[[[[||||[[[[[[[[[[[[[[[[[[[[[[||||[[[[[[[[[[[[[[[[[[[}}}}}}}[[[[[[[[[[[[[[[,   ",
"    [[[[[[[[[[[[[[[}}}}}}}[[[[[[[[[[[[[[[[[[[||||[[[[[[[[[[[[[[[[[[[[[[||||[[[[[[[[[[[[[[[[[[[}}}}}}}[[[[[[[[[[[[[[[f   ",
"    [[[[[[[[[[[[[[[}}}}}}}[[[[[[[[[[[[[[[[[[[||||[[[[[[[[[[[[[[[[[[[[[[||||[[[[[[[[[[[[[[[[[[[}}}}}}}[[[[[[[[[[[[[[['   ",
"    [[[[[[[[[[[[[[[}}}}}}}[[[[[[[[[[[[[[[[[[[||||[[[[[[[[[[[[[[[[[[[[[[||||[[[[[[[[[[[[[[[[[[[}}}}}}}[[[[[[[[[[[[[[[    ",
"    [[[[[[[[[[[[[[[}}}}}}}[[[[[[[[[[[[[[[[[[[||||[[[[[[[[[[[[[[[[[[[[[[||||[[[[[[[[[[[[[[[[[[[}}}}}}}[[[[[[[[[[[[[[[    ",
"    a[[[[[[[[[[[[[[}}}}}}}[[[[[[[[[[[[[[[[[[[||||[[[[[[[[[[[[[[[[[[[[[[||||[[[[[[[[[[[[[[[[[[[}}}}}}}[[[[[[[[[[[[[[[    ",
"    a[[[[[[[[[[[[[[}}}}}}}[[[[[[[[[[[[[[[[[[[||||[[[[[[[[[[[[[[[[[[[[[[||||[[[[[[[[[[[[[[[[[[[}}}}}}}[[[[[[[[[[[[[[[    ",
"    a[[[[[[[[[[[[[[}}}}}}}[[[[[[[[[[[[[[[[[[[||||[[[[[[[[[[[[[[[[[[[[[[||||[[[[[[[[[[[[[[[[[[[}}}}}}}[[[[[[[[[[[[[[[    ",
"    a[[[[[[[[[[[[[[}}}}}}}[[[[[[[[[[[[[[[[[[[||||[[[[[[[[[[[[[[[[[[[[[[||||[[[[[[[[[[[[[[[[[[[}}}}}}}[[[[[[[[[[[[[[[    ",
"    a[[[[[[[[[[[[[[}}}}}}}[[[[[[[[[[[[[[[[[[[||||[[[[[[[[[[[[[[[[[[[[[[||||[[[[[[[[[[[[[[[[[[[}}}}}}}[[[[[[[[[[[[[[[    ",
"    a[[[[[[[[[[[[[[}}}}}}}[[[[[[[[[[[[[[[[[[[||||[[[[[[[[[[[[[[[[[[[[[[||||[[[[[[[[[[[[[[[[[[[}}}}}}}[[[[[[[[[[[[[[[    ",
"   &a[[[[[[[[[[[[[[}}}}}}}[[[[[[[[[[[[[[[[[[[||||[[[[[[[[[[[[[[[[[[[[[[[[[[[[[[[[[[[[[[[[[[[[[}}}}}}}[[[[[[[[[[[[[[g    ",
"   %a[[[[[[[[[[[[[[}}}}}}}[[[[[[[[[[[[[[[[[[[||||[[[[[[[[[[[[[[[[[[[[[[[[[[[[[[[[[[[[[[[[[[[[[}}}}}}}[[[[[[[[[[[[[[g    ",
"   %a[[[[[[[[[[[[[[}}}}}}}[[[[[[[[[[[[[[[[[[[||||[[[[[[[[[[[[[[[[[[[[[[[[[[[[[[[[[[[[[[[[[[[[[}}}}}}}[[[[[[[[[[[[[[h    ",
"   %a[[[[[[[[[[[[[[}}}}}}}[[[[[[[[[[[[[[[[[[[||||[[[[[[[[[[[[[[[[[[[[[[[[[[[[[[[[[[[[[[[[[[[[[}}}}}}}[[[[[[[[[[[[[[i    ",
"   =a[[[[[[[[[[[[[[}}}}}}}[[[[[[[[[[[[[[[[[[[||||[[[[[[[[[[[[[[[[[[[[[[[[[[[[[[[[[[[[[[[[[[[[[}}}}}}}[[[[[[[[[[[[[[i    ",
"   =a[[[[[[[[[[[[[[}}}}}}}[[[[[[[[[[[[[[[[[[[||||[[[[[[[[[[[[[[[[[[[[[[[[[[[[[[[[[[[[[[[[[[[[[}}}}}}}[[[[[[[[[[[[[[i    ",
"   %a[[[[[[[[[[[[[[}}}}}}}[[[[[[[[[[[[[[[[[[[||||[[[[[[[[[[[[[[[[[[[[[[[[[[[[[[[[[[[[[[[[[[[[[}}}}}}}[[[[[[[[[[[[[[i    ",
"   j[[[[[[[[[[[[[[[}}}}}}}[[[[[[[[[[[[[[[[[[[||||[[[[[[[[[[[[[[[[[[[[[[||||[[[[[[[[[[[[[[[[[[[}}}}}}}[[[[[[[[[[[[[[i    ",
"   j[[[[[[[[[[[[[[[}}}}}}}[[[[[[[[[[[[[[[[[[[||||[[[[[[[[[[[[[[[[[[[[[[||||[[[[[[[[[[[[[[[[[[[}}}}}}}[[[[[[[[[[[[[[i    ",
"   k[[[[[[[[[[[[[[[}}}}}}}[[[[[[[[[[[[[[[[[[[||||[[[[[[[[[[[[[[[[[[[[[[||||[[[[[[[[[[[[[[[[[[[}}}}}}}[[[[[[[[[[[[[[i    ",
"   l[[[[[[[[[[[[[[[}}}}}}}[[[[[[[[[[[[[[[[[[[||||[[[[[[[[[[[[[[[[[[[[[[||||[[baaaamnnnnnnnmaaaop}}}}}[[[[[[[[[[[[[[i    ",
"   l[[[[[[[[[[[[[[[}}}}}}}q((-----                                             r%%%       %&&.st}}}}}[[[[[[[[[[[[[[i%   ",
"   u[[[[[[[[[[[[[[[}}}}}}pv                                                                   wt}}}}}[[[[[[[[[[[[[[i%   ",
"   u[[[[[[[[[[[[[[[}}}}}}o&                                                                   wt}}}}}[[[[[[[[[[[[[[ax   ",
"  %y[[[[[[[[[[[[[[[}}}}}}o&                                                                   wt}}}}}[[[[[[[[[[[[[[az   "};
