/* XPM */
static char * enemy1_xpm[] = {
"120 120 17 1",
" 	c #8D768A",
".	c #14605D",
"+	c #82A368",
"@	c #8C7588",
"#	c #000000",
"$	c #DEF9FC",
"%	c #A5B5D4",
"&	c #A84111",
"*	c #7F6874",
"=	c #453625",
"-	c #816A77",
";	c #846D7B",
">	c #876F80",
",	c #897284",
"'	c #8A7386",
")	c #8D7689",
"!	c #8B7488",
"                                                                                                                        ",
"                                                                                                                        ",
"                                                                                                                        ",
"                                                                                                                        ",
"                                                                                                                        ",
"                                                                                                                        ",
"                                                                                                                        ",
"                                                                                                                        ",
"                                                                                                                        ",
"                                                                                                                        ",
"                                                                                                                        ",
"                                                                                                                        ",
"                                                                                                                        ",
"                                                                                                                        ",
"                                                                                                                        ",
"                                                                                                                        ",
"                                                                                                                        ",
"                                                                                                                        ",
"                                                                                                                        ",
"                                                                                                                        ",
"                                                                                                                        ",
"                                                                                                                        ",
"                                                                                                                        ",
"                                                                                                                        ",
"                                                                                                                        ",
"                                                                                                                        ",
"                                                                           ..........                                   ",
"                                                                           ..........                                   ",
"                                                                           ..........                                   ",
"                                                                           ..........                                   ",
"                                                                           ..........                                   ",
"                              +++++++++++++++     ++++++++++++++++++++..........                                        ",
"                              +++++++++++++++     ++++++++++++++++++++..........                                        ",
"                              +++++++++++++++     ++++++++++++++++++++..........                                        ",
"                              +++++++++++++++     ++++++++++++++++++++..........                                        ",
"                              +++++++++++++++     ++++++++++++++++++++..........                                        ",
"                                   ..........++++++++++++++++++++++++++++++++++++++++                                   ",
"                                   ..........++++++++++++++++++++++++++++++++++++++++                                   ",
"                                   ..........++++++++++++++++++++++++++++++++++++++++                                   ",
"                                   ..........++++++++++++++++++++++++++++++++++++++++                                   ",
"@                                  ..........++++++++++++++++++++++++++++++++++++++++                                   ",
"                                             .....+++++##########+++++++++++++++                                        ",
"                                             .....+++++##########+++++++++++++++                                        ",
"                                             .....+++++##########+++++++++++++++                                        ",
"                                             .....+++++##########+++++++++++++++                                        ",
"                                             .....+++++##########+++++++++++++++                                        ",
"                                             ++++++++++++++++++++++++++++++          $$$$$                              ",
"                                             ++++++++++++++++++++++++++++++          $$$$$                              ",
"                                             ++++++++++++++++++++++++++++++          $$$$$                              ",
"                                             ++++++++++++++++++++++++++++++          $$$$$                              ",
"                                             ++++++++++++++++++++++++++++++          $$$$$                              ",
"                                             ++++++++++$$$$$##########               %%%%%$$$$$                         ",
"                                             ++++++++++$$$$$##########               %%%%%$$$$$                         ",
"                                             ++++++++++$$$$$##########               %%%%%$$$$$                         ",
"                                             ++++++++++$$$$$##########               %%%%%$$$$$                         ",
"                                             ++++++++++$$$$$##########               %%%%%$$$$$                         ",
"                              +++++++++++++++&&&&&+++++++++++++++++++++++++          %%%%%$$$$$                         ",
"                              +++++++++++++++&&&&&+++++++++++++++++++++++++          %%%%%$$$$$                         ",
"                              +++++++++++++++&&&&&+++++++++++++++++++++++++          %%%%%$$$$$                         ",
"                              +++++++++++++++&&&&&+++++++++++++++++++++++++          %%%%%$$$$$                         ",
"                              +++++++++++++++&&&&&+++++++++++++++++++++++++          %%%%%$$$$$                         ",
"                         ++++++++++++++++++++&&&&&&&&&&&&&&&&&&&&&&&&&.....          +++++$$$$$                         ",
"                         ++++++++++++++++++++&&&&&&&&&&&&&&&&&&&&&&&&&.....          +++++$$$$$                         ",
"                         ++++++++++++++++++++&&&&&&&&&&&&&&&&&&&&&&&&&.....          +++++$$$$$                         ",
"                         ++++++++++++++++++++&&&&&&&&&&&&&&&&&&&&&&&&&.....          +++++$$$$$                         ",
"                         ++++++++++++++++++++&&&&&&&&&&&&&&&&&&&&&&&&&.....          +++++$$$$$                         ",
"                    +++++++++++++++     &&&&&&&&&&&&&&&&&&&&&&&&&....................++++++++++                         ",
"                    +++++++++++++++     &&&&&&&&&&&&&&&&&&&&&&&&&....................++++++++++                         ",
"                    +++++++++++++++     &&&&&&&&&&&&&&&&&&&&&&&&&....................++++++++++                         ",
"                    +++++++++++++++     &&&&&&&&&&&&&&&&&&&&&&&&&....................++++++++++                         ",
"                    +++++++++++++++     &&&&&&&&&&&&&&&&&&&&&&&&&....................++++++++++                         ",
"*                   ++++++++++          &&&&&&&&&&&&&&&&&&&&=====          .....+++++++++++++++                         ",
"-                   ++++++++++          &&&&&&&&&&&&&&&&&&&&=====          .....+++++++++++++++                         ",
";                   ++++++++++          &&&&&&&&&&&&&&&&&&&&=====          .....+++++++++++++++                         ",
">                   ++++++++++          &&&&&&&&&&&&&&&&&&&&=====          .....+++++++++++++++                         ",
",                   ++++++++++          &&&&&&&&&&&&&&&&&&&&=====          .....+++++++++++++++                         ",
"'                   ++++++++++     ==============================                    &&&&&&&&&&                         ",
")                   ++++++++++     ==============================                    &&&&&&&&&&                         ",
"                    ++++++++++     ==============================                    &&&&&&&&&&                         ",
"                    ++++++++++     ==============================                    &&&&&&&&&&                         ",
"                    ++++++++++     ==============================                    &&&&&&&&&&                         ",
"                                   &&&&&&&&&&&&&&&     ===============                                                  ",
"                                   &&&&&&&&&&&&&&&     ===============                                                  ",
"                                   &&&&&&&&&&&&&&&     ===============                                                  ",
"                                   &&&&&&&&&&&&&&&     ===============                                                  ",
"                                   &&&&&&&&&&&&&&&     ===============                                                  ",
"                              +++++++++++++++               =====..........                                             ",
"                              +++++++++++++++               =====..........                                             ",
"                              +++++++++++++++               =====..........                                             ",
"                              +++++++++++++++               =====..........                                             ",
"       @                      +++++++++++++++               =====..........                                             ",
"       @                      ++++++++++                    ..........                                                  ",
"       !                      ++++++++++                    ..........                                                  ",
"       !                      ++++++++++                    ..........                                                  ",
"                              ++++++++++                    ..........                                                  ",
"                              ++++++++++                    ..........                                                  ",
"                              &&&&&&&&&&                    ==========                                                  ",
"                              &&&&&&&&&&                    ==========                                                  ",
"                              &&&&&&&&&&                    ==========                                                  ",
"                              &&&&&&&&&&                    ==========                                                  ",
"                              &&&&&&&&&&                    ==========                                                  ",
"                              &&&&&&&&&&                    ===============                                             ",
"                              &&&&&&&&&&                    ===============                                             ",
"                              &&&&&&&&&&                    ===============                                             ",
"                              &&&&&&&&&&                    ===============                                             ",
"                              &&&&&&&&&&                    ===============                                             ",
"                                                                                                                        ",
"                                                                                                                        ",
"                                                                                                                        ",
"                                                                                                                        ",
"                                                                                                                        ",
"                                                                                                                        ",
"                                                                                                                        ",
"                                                                                                                        ",
"                                                                                                                        ",
"                                                                                                                        ",
"                                                                                                                        ",
"                                                                                                                        ",
"                                                                                                                        ",
"                                                                                                                        "};
