/* XPM */
static char * opened_door_xpm[] = {
"120 120 79 1",
" 	c #8D768A",
".	c #8A7385",
"+	c #7B646D",
"@	c #E17B50",
"#	c #826B79",
"$	c #8C7588",
"%	c #897284",
"&	c #8C7589",
"*	c #8B7486",
"=	c #846D7B",
"-	c #796269",
";	c #866F7F",
">	c #887183",
",	c #8A7386",
"'	c #8D7689",
")	c #9E7783",
"!	c #A27781",
"~	c #A7777F",
"{	c #B27879",
"]	c #B47878",
"^	c #B87875",
"/	c #C7796A",
"(	c #DC7B56",
"_	c #D77A5B",
":	c #C5796C",
"<	c #887182",
"[	c #866F80",
"}	c #C07970",
"|	c #C97969",
"1	c #A84111",
"2	c #0C1317",
"3	c #D87A5A",
"4	c #D67A5D",
"5	c #CF7A64",
"6	c #A54A37",
"7	c #8B7488",
"8	c #A6472B",
"9	c #A44C3A",
"0	c #8B7487",
"a	c #866F7E",
"b	c #846D7C",
"c	c #836C7A",
"d	c #816A77",
"e	c #7F6874",
"f	c #A44D3C",
"g	c #A1544C",
"h	c #A35044",
"i	c #8C7689",
"j	c #8A7285",
"k	c #8A7387",
"l	c #2A262D",
"m	c #5A4C59",
"n	c #5F505E",
"o	c #645462",
"p	c #5D4E5C",
"q	c #3A323C",
"r	c #6D5B6B",
"s	c #756273",
"t	c #7D697B",
"u	c #7F6A7C",
"v	c #806B7D",
"w	c #846F82",
"x	c #877184",
"y	c #867084",
"z	c #856F82",
"A	c #846F81",
"B	c #816C7F",
"C	c #7B6778",
"D	c #796577",
"E	c #776374",
"F	c #6B5A69",
"G	c #5E4F5D",
"H	c #4D424E",
"I	c #4B404C",
"J	c #887185",
"K	c #877081",
"L	c #836D80",
"M	c #7F6B7D",
"N	c #7C687A",
"                                               .+@@@@@@@@@@@@@@@@@@@@@@#$                                               ",
"                                               .+@@@@@@@@@@@@@@@@@@@@@@#$                                               ",
"                                              $%+@@@@@@@@@@@@@@@@@@@@@@#$                                               ",
"                                           &$*=#-@@@@@@@@@@@@@@@@@@@@@@#;>,,$&'                                         ",
"                                    &)!~~{]^//(@@@@@@@@@@@@@@@@@@@@@@@@@@@@@@@(__:                                      ",
"                                    <@@@@@@@@@@@@@@@@@@@@@@@@@@@@@@@@@@@@@@@@@@@@@                                      ",
"                                  '&[@@@@@@@@@@@@@@@@@@@@@@@@@@@@@@@@@@@@@@@@@@@@@                                      ",
"                              }}}}}}|@@@@@@@@@@@@@@@@@@@@@@@@@@@@@@@@@@@@@@@@@@@@@@@@@@@@@                              ",
"                              @@@@@@@@@@@@@@@@@@@@@@@@@@@@@@@@@@@@@@@@@@@@@@@@@@@@@@@@@@@@                              ",
"                              @@@@@@@@@@@@@@@@@@@@@@@@@@@@@@@@@@@@@@@@@@@@@@@@@@@@@@@@@@@@                              ",
"                              @@@@@@@@@@@@@@@@@@@@@@@@@@@@@@@@@@@@@@@@@@@@@@@@@@@@@@@@@@@@                              ",
"                          @@@@@@@@@@@@@@@@@@@111111111111111111111111111111@@@@@@@@@@@@@@@@@@@                          ",
"                          @@@@@@@@@@@@@@@@@@@111111111111111111111111111111@@@@@@@@@@@@@@@@@@@                          ",
"                          @@@@@@@@@@@@@@@@@@@111111111111111111111111111111@@@@@@@@@@@@@@@@@@@                          ",
"                          @@@@@@@@@@@@@@@@@@@111111111111111111111111111111@@@@@@@@@@@@@@@@@@@                          ",
"                      @@@@@@@@@@@@@@@111111111111111111111111111111111111111111111@@@@@@@@@@@@@@@                       ",
"                      @@@@@@@@@@@@@@@111111111111111111111111111111111111111111111@@@@@@@@@@@@@@@                       ",
"                      @@@@@@@@@@@@@@@111111111111111111111111111111111111111111111@@@@@@@@@@@@@@@                       ",
"                      @@@@@@@@@@@@@@@111111111111111111111111111111111111111111111@@@@@@@@@@@@@@@                       ",
"                   @@@@@@@@@@@111111111111111111111111111111111111111111111111111111111111@@@@@@@@@@@                   ",
"                   @@@@@@@@@@@111111111111111111111111111111111111111111111111111111111111@@@@@@@@@@@                   ",
"                   @@@@@@@@@@@111111111111111111111111111111111111111111111111111111111111@@@@@@@@@@@                   ",
"               @@@@@@@@@@@11111111111111111111111222222222222222222222211111111111111111111111@@@@@@@@@@@               ",
"               @@@@@@@@@@@11111111111111111111111222222222222222222222211111111111111111111111@@@@@@@@@@@               ",
"               @@@@@@@@@@@11111111111111111111111222222222222222222222211111111111111111111111@@@@@@@@@@@               ",
"               @@@@@@@@@@@11111111111111111111111222222222222222222222211111111111111111111111@@@@@@@@@@@               ",
"           @@@@@@@@@@@111111111111111111122222222222222222222222222222222222222111111111111111111@@@@@@@@@@@@           ",
"           @@@@@@@@@@@111111111111111111122222222222222222222222222222222222222111111111111111111@@@@@@@@@@@@           ",
"           @@@@@@@@@@@111111111111111111122222222222222222222222222222222222222111111111111111111@@@@@@@@@@@@           ",
"           @@@@@@@@@@@111111111111111111122222222222222222222222222222222222222111111111111111111@@@@@@@@@@@@           ",
"           @@@@@@@@1111111111111111112222222222222222222222222222222222222222222221111111111111111111@@@@@@@@           ",
"           @@@@@@@@1111111111111111112222222222222222222222222222222222222222222221111111111111111111@@@@@@@@           ",
"           @@@@@@@@1111111111111111112222222222222222222222222222222222222222222221111111111111111111@@@@@@@@           ",
"           @@@@@@@@1111111111111111112222222222222222222222222222222222222222222221111111111111111111@@@@@@@@           ",
"       @@@@@@@@111111111111111111122222222222222222222222222222222222222222222222222221111111111111111111@@@@@@@        ",
"       @@@@@@@@111111111111111111122222222222222222222222222222222222222222222222222221111111111111111111@@@@@@@        ",
"       @@@@@@@@111111111111111111122222222222222222222222222222222222222222222222222221111111111111111111@@@@@@@        ",
"       @@@@11111111111111111112222222222222222222222222222222222222222222222222222222222221111111111111111111@@@        ",
"       @@@@11111111111111111112222222222222222222222222222222222222222222222222222222222221111111111111111111@@@        ",
"       @@@@11111111111111111112222222222222222222222222222222222222222222222222222222222221111111111111111111@@@        ",
"       @@@@11111111111111111112222222222222222222222222222222222222222222222222222222222221111111111111111111@@@    '   ",
"       @@@@11111111111111122222222222222222222222222222222222222222222222222222222222222222222111111111111111@@@        ",
"       @@@@11111111111111122222222222222222222222222222222222222222222222222222222222222222222111111111111111@@@        ",
"       @@@@11111111111111122222222222222222222222222222222222222222222222222222222222222222222111111111111111@@@        ",
"       @@@@11111111111111122222222222222222222222222222222222222222222222222222222222222222222111111111111111@@@        ",
"    @@@111111111111111222222222222222222222222222222222222222222222222222222222222222222222222222111111111111111@@@@    ",
"    @@@111111111111111222222222222222222222222222222222222222222222222222222222222222222222222222111111111111111@@@@    ",
"    @@@111111111111111222222222222222222222222222222222222222222222222222222222222222222222222222111111111111111@@@@    ",
"    @@@111111111111111222222222222222222222222222222222222222222222222222222222222222222222222222111111111111111@@@@    ",
"   ,3@@111111111111111222222222222222222222222222222222222222222222222222222222222222222222222222111111111111111@@@@    ",
"   $_@@111111111111111222222222222222222222222222222222222222222222222222222222222222222222222222111111111111111@@@@    ",
"   $4@@111111111111111222222222222222222222222222222222222222222222222222222222222222222222222222111111111111111@@@@    ",
"    5@@111111111111222222222222222222222222222222222222222222222222222222222222222222222222222222222211111111111@@@@    ",
"    5@@111111111111222222222222222222222222222222222222222222222222222222222222222222222222222222222211111111111@@@@    ",
"    5@@111111111111222222222222222222222222222222222222222222222222222222222222222222222222222222222211111111111@@@@    ",
"    5@@111111111111222222222222222222222222222222222222222222222222222222222222222222222222222222222211111111111@@@@    ",
"    5@@111111111111222222222222222222222222222222222222222222222222222222222222222222222222222222222211111111111@@@@    ",
"    5@@111111111111222222222222222222222222222222222222222222222222222222222222222222222222222222222211111111111@@@@    ",
"    5@@111111111111222222222222222222222222222222222222222222222222222222222222222222222222222222222211111111111@@@@    ",
"    5@@111111111111222222222222222222222222222222222222222222222222222222222222222222222222222222222211111111111@@@@    ",
"    5@@111111111111222222222222222222222222222222222222222222222222222222222222222222222222222222222211111111111@@@@    ",
"    5@@111111111111222222222222222222222222222222222222222222222222222222222222222222222222222222222211111111111@@@@    ",
"    4@@111111111111222222222222222222222222222222222222222222222222222222222222222222222222222222222211111111111@@@@    ",
"   '_@@111111111111222222222222222222222222222222222222222222222222222222222222222222222222222222222211111111111@@@@    ",
"   &6111111111111112222222222222222222222222222222222222222222222222222222222222222222222222222222222111111111111111    ",
"   71111111111111112222222222222222222222222222222222222222222222222222222222222222222222222222222222111111111111118    ",
"   71111111111111112222222222222222222222222222222222222222222222222222222222222222222222222222222222111111111111119    ",
"   *1111111111111112222222222222222222222222222222222222222222222222222222222222222222222222222222222111111111111119    ",
"   ,1111111111111112222222222222222222222222222222222222222222222222222222222222222222222222222222222111111111111119    ",
"   .1111111111111112222222222222222222222222222222222222222222222222222222222222222222222222222222222111111111111119    ",
"   %1111111111111112222222222222222222222222222222222222222222222222222222222222222222222222222222222111111111111119    ",
"    1111111111111112222222222222222222222222222222222222222222222222222222222222222222222222222222222111111111111119&   ",
"    1111111111111112222222222222222222222222222222222222222222222222222222222222222222222222222222222111111111111119&   ",
"    1111111111111112222222222222222222222222222222222222222222222222222222222222222222222222222222222111111111111119&   ",
"    1111111111111112222222222222222222222222222222222222222222222222222222222222222222222222222222222111111111111119&   ",
"    1111111111111112222222222222222222222222222222222222222222222222222222222222222222222222222222222111111111111119&   ",
"    11111111111111122222222222222222222222222222222222222222222222222222222222222222222222222222222221111111111111190   ",
"    1111111111111112222222222222222222222222222222222222222222222222222222222222222222222222222222222111111111111119%   ",
"    1111111111111112222222222222222222222222222222222222222222222222222222222222222222222222222222222111111111111118a   ",
"    1111111111111112222222222222222222222222222222222222222222222222222222222222222222222222222222222111111111111111#   ",
"    1111111111111112222222222222222222222222222222222222222222222222222222222222222222222222222222222111111111111111b   ",
"    1111111111111112222222222222222222222222222222222222222222222222222222222222222222222222222222222111111111111111#   ",
"    1111111111111112222222222222222222222222222222222222222222222222222222222222222222222222222222222111111111111111#   ",
"    1111111111111112222222222222222222222222222222222222222222222222222222222222222222222222222222222111111111111111a   ",
"    1111111111111112222222222222222222222222222222222222222222222222222222222222222222222222222222222111111111111111[   ",
"    1111111111111112222222222222222222222222222222222222222222222222222222222222222222222222222222222111111111111111[   ",
"    1111111111111112222222222222222222222222222222222222222222222222222222222222222222222222222222222111111111111111[   ",
"    1111111111111112222222222222222222222222222222222222222222222222222222222222222222222222222222222111111111111111[   ",
"    1111111111111112222222222222222222222222222222222222222222222222222222222222222222222222222222222111111111111111[   ",
"    1111111111111112222222222222222222222222222222222222222222222222222222222222222222222222222222222111111111111111[   ",
"    1111111111111112222222222222222222222222222222222222222222222222222222222222222222222222222222222111111111111111[   ",
"    1111111111111112222222222222222222222222222222222222222222222222222222222222222222222222222222222111111111111111c   ",
"    1111111111111112222222222222222222222222222222222222222222222222222222222222222222222222222222222111111111111111c   ",
"    1111111111111112222222222222222222222222222222222222222222222222222222222222222222222222222222222111111111111111d   ",
"    1111111111111112222222222222222222222222222222222222222222222222222222222222222222222222222222222111111111111111e   ",
"    1111111111111112222222222222222222222222222222222222222222222222222222222222222222222222222222222111111111111111b   ",
"    1111111111111112222222222222222222222222222222222222222222222222222222222222222222222222222222222111111111111111e   ",
"    8111111111111112222222222222222222222222222222222222222222222222222222222222222222222222222222222111111111111111    ",
"    9111111111111112222222222222222222222222222222222222222222222222222222222222222222222222222222222111111111111111    ",
"    f111111111111112222222222222222222222222222222222222222222222222222222222222222222222222222222222111111111111111    ",
"    g111111111111112222222222222222222222222222222222222222222222222222222222222222222222222222222222111111111111111    ",
"    g111111111111112222222222222222222222222222222222222222222222222222222222222222222222222222222222111111111111111    ",
"    g111111111111112222222222222222222222222222222222222222222222222222222222222222222222222222222222111111111111111    ",
"    g111111111111112222222222222222222222222222222222222222222222222222222222222222222222222222222222111111111111111    ",
"    g111111111111112222222222222222222222222222222222222222222222222222222222222222222222222222222222111111111111111    ",
"    g111111111111112222222222222222222222222222222222222222222222222222222222222222222222222222222222111111111111111    ",
"    g111111111111112222222222222222222222222222222222222222222222222222222222222222222222222222222222111111111111111    ",
"    g111111111111112222222222222222222222222222222222222222222222222222222222222222222222222222222222111111111111111    ",
"    g111111111111112222222222222222222222222222222222222222222222222222222222222222222222222222222222111111111111111    ",
"    g111111111111112222222222222222222222222222222222222222222222222222222222222222222222222222222222111111111111111    ",
"    h111111111111112222222222222222222222222222222222222222222222222222222222222222222222222222222222111111111111111    ",
"    9111111111111112222222222222222222222222222222222222222222222222222222222222222222222222222222222111111111111111    ",
"   i6111111111111112222222222222222222222222222222222222222222222222222222222222222222222222222222222111111111111111.   ",
"   &1111111111111112222222222222222222222222222222222222222222222222222222222222222222222222222222222111111111111111.   ",
"   &1111111111111112222222222222222222222222222222222222222222222222222222222222222222222222222222222111111111111111j   ",
"   k111111111111111222222222lmmnooooooooopqql2222222222222lqqporsstuvwwxxxxxyxxzwABBCDEFFGHIqql222222111111111111111j   ",
"   J1111111111111112222222d*$'                                                           &$0<Km222222111111111111111L   ",
"   x1111111111111112222222#'                                                                 .m222222111111111111111L   ",
"   w1111111111111112222222#'                                                                 .m222222111111111111111M   ",
"   w1111111111111112222222#'                                                                 .m222222111111111111111N   "};
