/* XPM */
static char * wall_xpm[] = {
"120 120 3 1",
" 	c #1F324D",
".	c #5A5875",
"+	c #8294AF",
"                      ..............................               ....++++++++++++++++++++++++++............           ",
"                      ..............................               ....++++++++++++++++++++++++++............           ",
"                      ..............................               ....++++++++++++++++++++++++++............           ",
"                      ..............................               ....++++++++++++++++++++++++++............           ",
"    ...............++++++++++++++++++++++++++......................++++++++++++++++++++++++++++++++++++++...........    ",
"    ...............++++++++++++++++++++++++++......................++++++++++++++++++++++++++++++++++++++...........    ",
"    ...............++++++++++++++++++++++++++......................++++++++++++++++++++++++++++++++++++++...........    ",
"    ...........++++++++++++++++++++++++++++++++++...............+++++++++++++++++++++++++++++++++++++++++....+++++++....",
"    ...........++++++++++++++++++++++++++++++++++...............+++++++++++++++++++++++++++++++++++++++++....+++++++....",
"    ...........++++++++++++++++++++++++++++++++++...............+++++++++++++++++++++++++++++++++++++++++....+++++++....",
"    ...........++++++++++++++++++++++++++++++++++...............+++++++++++++++++++++++++++++++++++++++++....+++++++....",
"...........+++++++++++++++++++++++++++++++++++++++++........+++++++++++++++++++++++++++++++++++++++++++++    +++++++++++",
"...........+++++++++++++++++++++++++++++++++++++++++........+++++++++++++++++++++++++++++++++++++++++++++    +++++++++++",
"...........+++++++++++++++++++++++++++++++++++++++++........+++++++++++++++++++++++++++++++++++++++++++++    +++++++++++",
"...........+++++++++++++++++++++++++++++++++++++++++........+++++++++++++++++++++++++++++++++++++++++++++    +++++++++++",
"....+++....+++++++++++++++++++++++++++++++++++++++++++++++++....+++++++++++++++++++++++++++++++++++++++++    +++++++++++",
"....+++....+++++++++++++++++++++++++++++++++++++++++++++++++....+++++++++++++++++++++++++++++++++++++++++    +++++++++++",
"....+++....+++++++++++++++++++++++++++++++++++++++++++++++++....+++++++++++++++++++++++++++++++++++++++++    +++++++++++",
"....+++....+++++++++++++++++++++++++++++++++++++++++++++++++....+++++++++++++++++++++++++++++++++++++++++    +++++++++++",
"++++++++++++++++++++++++++++++++++++++++++++++++++++++++++++....+++++++++++++++++++++++++++++++++++++....+++++++++++++++",
"++++++++++++++++++++++++++++++++++++++++++++++++++++++++++++....+++++++++++++++++++++++++++++++++++++....+++++++++++++++",
"++++++++++++++++++++++++++++++++++++++++++++++++++++++++++++....+++++++++++++++++++++++++++++++++++++....+++++++++++++++",
"+++++++++++++++++++++++++++++++++++++++++++++++++++++++++++++++++++++++++++++++++++++++++++++++++........+++++++++++++++",
"+++++++++++++++++++++++++++++++++++++++++++++++++++++++++++++++++++++++++++++++++++++++++++++++++........+++++++++++++++",
"+++++++++++++++++++++++++++++++++++++++++++++++++++++++++++++++++++++++++++++++++++++++++++++++++........+++++++++++++++",
"+++++++++++++++++++++++++++++++++++++++++++++++++++++++++++++++++++++++++++++++++++++++++++++++++........+++++++++++++++",
"+++++++....+++++++++++++++++++++++++++++++++++++++++++++++++++++++++++++++++++++++++++++++++++...........+++++++++++++++",
"+++++++....+++++++++++++++++++++++++++++++++++++++++++++++++++++++++++++++++++++++++++++++++++...........+++++++++++++++",
"+++++++....+++++++++++++++++++++++++++++++++++++++++++++++++++++++++++++++++++++++++++++++++++...........+++++++++++++++",
"+++++++....+++++++++++++++++++++++++++++++++++++++++++++++++++++++++++++++++++++++++++++++++++...........+++++++++++++++",
"+++++++....+++++++++++++++++++++++++++++++++++++++++++++++++.......+++++++++++++++++++++++....+++++++++++    +++++++....",
"+++++++....+++++++++++++++++++++++++++++++++++++++++++++++++.......+++++++++++++++++++++++....+++++++++++    +++++++....",
"+++++++....+++++++++++++++++++++++++++++++++++++++++++++++++.......+++++++++++++++++++++++....+++++++++++    +++++++....",
"+++++++....+++++++++++++++++++++++++++++++++++++++++++++++++.......+++++++++++++++++++++++....+++++++++++    +++++++....",
"....+++........+++++++++++++++++++++++++++++++++++++++++...............+++++++++++++++    +++++++++++++++++++   ........",
"....+++........+++++++++++++++++++++++++++++++++++++++++...............+++++++++++++++    +++++++++++++++++++   ........",
"....+++........+++++++++++++++++++++++++++++++++++++++++...............+++++++++++++++    +++++++++++++++++++   ........",
"...........    ....+++++++++++++++++++++++++++++++++....+++++++++++++++++++...........++++++++++++++++++++++++++....    ",
"...........    ....+++++++++++++++++++++++++++++++++....+++++++++++++++++++...........++++++++++++++++++++++++++....    ",
"...........    ....+++++++++++++++++++++++++++++++++....+++++++++++++++++++...........++++++++++++++++++++++++++....    ",
"...........    ....+++++++++++++++++++++++++++++++++....+++++++++++++++++++...........++++++++++++++++++++++++++....    ",
".......++++....    ...+++++++++++++++++++++++++++...+++++++++++++++++++++++++++...++++++++++++++++++++++++++++++++++    ",
".......++++....    ...+++++++++++++++++++++++++++...+++++++++++++++++++++++++++...++++++++++++++++++++++++++++++++++    ",
".......++++....    ...+++++++++++++++++++++++++++...+++++++++++++++++++++++++++...++++++++++++++++++++++++++++++++++    ",
".......++++....    ...+++++++++++++++++++++++++++...+++++++++++++++++++++++++++...++++++++++++++++++++++++++++++++++    ",
"....+++++++++++....               ...............+++++++++++++++++++++++++++++++++++++++++++++++++++++++++++++++++++    ",
"....+++++++++++....               ...............+++++++++++++++++++++++++++++++++++++++++++++++++++++++++++++++++++    ",
"....+++++++++++....               ...............+++++++++++++++++++++++++++++++++++++++++++++++++++++++++++++++++++    ",
"....+++++++++++....               ...............+++++++++++++++++++++++++++++++++++++++++++++++++++++++++++++++++++    ",
"....+++++++++++++++......................+++++++++++++++++++++++++++++++++++++++++++++++++++++++++++++++++++++++++++++++",
"....+++++++++++++++......................+++++++++++++++++++++++++++++++++++++++++++++++++++++++++++++++++++++++++++++++",
"....+++++++++++++++......................+++++++++++++++++++++++++++++++++++++++++++++++++++++++++++++++++++++++++++++++",
"    ++++++++++++++++++...............+++++++++++++++++++++++++++++++++++++++++++++....++++++++++++++++++++++++++++++++++",
"    ++++++++++++++++++...............+++++++++++++++++++++++++++++++++++++++++++++....++++++++++++++++++++++++++++++++++",
"    ++++++++++++++++++...............+++++++++++++++++++++++++++++++++++++++++++++....++++++++++++++++++++++++++++++++++",
"    ++++++++++++++++++...............+++++++++++++++++++++++++++++++++++++++++++++....++++++++++++++++++++++++++++++++++",
"    ++++++++++++++++++....++++.......++++++++++++++++++++++++++++++++++++++++++...    ....++++++++++++++++++++++++++++++",
"    ++++++++++++++++++....++++.......++++++++++++++++++++++++++++++++++++++++++...    ....++++++++++++++++++++++++++++++",
"    ++++++++++++++++++....++++.......++++++++++++++++++++++++++++++++++++++++++...    ....++++++++++++++++++++++++++++++",
"    ++++++++++++++++++....++++.......++++++++++++++++++++++++++++++++++++++++++...    ....++++++++++++++++++++++++++++++",
"    ...++++++++++++...+++++++++++++++....++++++++++++++++++++++++++++++++++....+++++++...............+++++++++++++++....",
"    ...++++++++++++...+++++++++++++++....++++++++++++++++++++++++++++++++++....+++++++...............+++++++++++++++....",
"    ...++++++++++++...+++++++++++++++....++++++++++++++++++++++++++++++++++....+++++++...............+++++++++++++++....",
"    ...++++++++++++...+++++++++++++++....++++++++++++++++++++++++++++++++++....+++++++...............+++++++++++++++....",
"    ...............++++++++++++++++++++++....+++++++++++++++++++...+++++++++++++++++++++++...............+++++++....    ",
"    ...............++++++++++++++++++++++....+++++++++++++++++++...+++++++++++++++++++++++...............+++++++....    ",
"    ...............++++++++++++++++++++++....+++++++++++++++++++...+++++++++++++++++++++++...............+++++++....    ",
"    ...........+++++++++++++++++++++++++++++++++++++++++++++....+++++++++++++++++++++++++++++++++++++...............    ",
"    ...........+++++++++++++++++++++++++++++++++++++++++++++....+++++++++++++++++++++++++++++++++++++...............    ",
"    ...........+++++++++++++++++++++++++++++++++++++++++++++....+++++++++++++++++++++++++++++++++++++...............    ",
"    ...........+++++++++++++++++++++++++++++++++++++++++++++....+++++++++++++++++++++++++++++++++++++...............    ",
"    .......++++++++++++++++++++++++++++++++++++++.......    +++++++++++++++++++++++++++++++++++++++++++++    ...++++....",
"    .......++++++++++++++++++++++++++++++++++++++.......    +++++++++++++++++++++++++++++++++++++++++++++    ...++++....",
"    .......++++++++++++++++++++++++++++++++++++++.......    +++++++++++++++++++++++++++++++++++++++++++++    ...++++....",
"    .......++++++++++++++++++++++++++++++++++++++.......    +++++++++++++++++++++++++++++++++++++++++++++    ...++++....",
".......+++++++++++++++++++++++++++++++++++++++++++++++++    +++++++++++++++++++++++++++++++++++++++++++++    +++++++++++",
".......+++++++++++++++++++++++++++++++++++++++++++++++++    +++++++++++++++++++++++++++++++++++++++++++++    +++++++++++",
".......+++++++++++++++++++++++++++++++++++++++++++++++++    +++++++++++++++++++++++++++++++++++++++++++++    +++++++++++",
".......+++++++++++++++++++++++++++++++++++++++++++++++++    +++++++++++++++++++++++++++++++++++++++++++++    +++++++++++",
"....++++++++++++++++++++++++++++++++++++++++++++++++++++    +++++++++++++++++++++++++++++++++++++++++....+++++++++++++++",
"....++++++++++++++++++++++++++++++++++++++++++++++++++++    +++++++++++++++++++++++++++++++++++++++++....+++++++++++++++",
"....++++++++++++++++++++++++++++++++++++++++++++++++++++    +++++++++++++++++++++++++++++++++++++++++....+++++++++++++++",
"....++++++++++++++++++++++++++++++++++++++++++++++++++++....+++++++++++++++++++++++++++++++++++++    ....+++++++++++....",
"....++++++++++++++++++++++++++++++++++++++++++++++++++++....+++++++++++++++++++++++++++++++++++++    ....+++++++++++....",
"....++++++++++++++++++++++++++++++++++++++++++++++++++++....+++++++++++++++++++++++++++++++++++++    ....+++++++++++....",
"....++++++++++++++++++++++++++++++++++++++++++++++++++++....+++++++++++++++++++++++++++++++++++++    ....+++++++++++....",
".......+++++++++++++++++++++++++++++++++++++++++++++++++........++++++++++++++++++++++++++++++   ........+++++++++++....",
".......+++++++++++++++++++++++++++++++++++++++++++++++++........++++++++++++++++++++++++++++++   ........+++++++++++....",
".......+++++++++++++++++++++++++++++++++++++++++++++++++........++++++++++++++++++++++++++++++   ........+++++++++++....",
".......+++++++++++++++++++++++++++++++++++++++++++++++++........++++++++++++++++++++++++++++++   ........+++++++++++....",
"    ...+++++++++++++++++++++++++++++++++++++++++++++++++...........+++++++++++++++++++++++    +++++++++++    +++++++....",
"    ...+++++++++++++++++++++++++++++++++++++++++++++++++...........+++++++++++++++++++++++    +++++++++++    +++++++....",
"    ...+++++++++++++++++++++++++++++++++++++++++++++++++...........+++++++++++++++++++++++    +++++++++++    +++++++....",
"    ...+++++++++++++++++++++++++++++++++++++++++++++++++...........+++++++++++++++++++++++    +++++++++++    +++++++....",
"    ...........+++++++++++++++++++++++++++++++++++++++++...............+++++++++++++++    +++++++++++++++++++   ....    ",
"    ...........+++++++++++++++++++++++++++++++++++++++++...............+++++++++++++++    +++++++++++++++++++   ....    ",
"    ...........+++++++++++++++++++++++++++++++++++++++++...............+++++++++++++++    +++++++++++++++++++   ....    ",
"    .......    ....+++++++++++++++++++++++++++++++++++++    +++++++++++++++...........++++++++++++++++++++++++++....    ",
"    .......    ....+++++++++++++++++++++++++++++++++++++    +++++++++++++++...........++++++++++++++++++++++++++....    ",
"    .......    ....+++++++++++++++++++++++++++++++++++++    +++++++++++++++...........++++++++++++++++++++++++++....    ",
"    .......    ....+++++++++++++++++++++++++++++++++++++    +++++++++++++++...........++++++++++++++++++++++++++....    ",
"....+++++++....    ...++++++++++++++++++++++++++++++    +++++++++++++++++++++++...++++++++++++++++++++++++++++++++++    ",
"....+++++++....    ...++++++++++++++++++++++++++++++    +++++++++++++++++++++++...++++++++++++++++++++++++++++++++++    ",
"....+++++++....    ...++++++++++++++++++++++++++++++    +++++++++++++++++++++++...++++++++++++++++++++++++++++++++++    ",
"....+++++++....    ...++++++++++++++++++++++++++++++    +++++++++++++++++++++++...++++++++++++++++++++++++++++++++++    ",
"....+++++++++++....   ........+++++++++++++++....   ++++++++++++++++++++++++++++++++++++++++++++++++++++++++++++++++....",
"....+++++++++++....   ........+++++++++++++++....   ++++++++++++++++++++++++++++++++++++++++++++++++++++++++++++++++....",
"....+++++++++++....   ........+++++++++++++++....   ++++++++++++++++++++++++++++++++++++++++++++++++++++++++++++++++....",
"....+++++++++++....   ........+++++++++++++++....   ++++++++++++++++++++++++++++++++++++++++++++++++++++++++++++++++....",
"....++++++++++++++++++....+++++++++++++++++++++++...++++++++++++++++++++++++++++++++++++++++++++++++++++++++++++++++....",
"....++++++++++++++++++....+++++++++++++++++++++++...++++++++++++++++++++++++++++++++++++++++++++++++++++++++++++++++....",
"....++++++++++++++++++....+++++++++++++++++++++++...++++++++++++++++++++++++++++++++++++++++++++++++++++++++++++++++....",
"    ++++++++++++++++++....++++++++++++++++++++++++++....++++++++++++++++++++++++++....++++++++++++++++++++++++++++++....",
"    ++++++++++++++++++....++++++++++++++++++++++++++....++++++++++++++++++++++++++....++++++++++++++++++++++++++++++....",
"    ++++++++++++++++++....++++++++++++++++++++++++++....++++++++++++++++++++++++++....++++++++++++++++++++++++++++++....",
"    ++++++++++++++++++....++++++++++++++++++++++++++....++++++++++++++++++++++++++....++++++++++++++++++++++++++++++....",
"    ...++++++++++++...........+++++++++++++++++++...........+++++++++++++++++++...    ....++++++++++++++++++++++........",
"    ...++++++++++++...........+++++++++++++++++++...........+++++++++++++++++++...    ....++++++++++++++++++++++........",
"    ...++++++++++++...........+++++++++++++++++++...........+++++++++++++++++++...    ....++++++++++++++++++++++........",
"    ...++++++++++++...........+++++++++++++++++++...........+++++++++++++++++++...    ....++++++++++++++++++++++........"};
